<svg xmlns="http://www.w3.org/2000/svg" xmlns:xlink="http://www.w3.org/1999/xlink" fill="none" version="1.1" width="16" height="16" viewBox="0 0 16 16"><defs><clipPath id="master_svg0_249_26969"><rect x="0" y="0" width="16" height="16" rx="0"/></clipPath></defs><g clip-path="url(#master_svg0_249_26969)"><g><path d="M2.9323982470703127,2.932413505859375Q0.8333282470703125,5.031473505859375,0.8333282470703125,8.000013505859375Q0.8333282470703125,10.968543505859374,2.9323982470703127,13.067643505859374Q5.031458247070312,15.166643505859374,7.999998247070312,15.166643505859374Q10.968528247070312,15.166643505859374,13.067628247070312,13.067643505859374Q15.166628247070312,10.968543505859374,15.166628247070312,8.000013505859375Q15.166628247070312,5.031473505859375,13.067628247070312,2.932413505859375Q10.968528247070312,0.833343505859375,7.999998247070312,0.833343505859375Q5.031468247070313,0.833343505859375,2.9323982470703127,2.932413505859375ZM3.6394982470703123,12.360543505859376Q1.8333282470703125,10.554323505859376,1.8333282470703125,8.000013505859375Q1.8333272470703126,5.445693505859375,3.6394982470703123,3.639513505859375Q5.445678247070313,1.833343505859375,7.999998247070312,1.833343505859375Q10.554308247070313,1.833343505859375,12.360528247070313,3.639513505859375Q14.166628247070312,5.445693505859375,14.166628247070312,8.000013505859375Q14.166628247070312,10.554333505859375,12.360528247070313,12.360543505859376Q10.554308247070313,14.166643505859374,7.999998247070312,14.166643505859374Q5.445678247070313,14.166643505859374,3.6394982470703123,12.360543505859376Z" fill-rule="evenodd" fill="#2462F9" fill-opacity="1"/></g><g><path d="M7.5,5.333343505859375L7.5,10.666673505859375Q7.5,10.715923505859376,7.509607,10.764223505859375Q7.519215,10.812523505859374,7.53806,10.858013505859375Q7.556906,10.903513505859376,7.584265,10.944463505859375Q7.611625,10.985403505859374,7.646447,11.020233505859375Q7.681269,11.055053505859375,7.722215,11.082413505859375Q7.763161,11.109773505859376,7.808658,11.128613505859375Q7.854155,11.147463505859374,7.9024549,11.157073505859376Q7.9507543,11.166673505859375,8,11.166673505859375Q8.0492457,11.166673505859375,8.0975451,11.157073505859376Q8.145845,11.147463505859374,8.191342,11.128613505859375Q8.236839,11.109773505859376,8.277785,11.082413505859375Q8.318731,11.055053505859375,8.353553,11.020233505859375Q8.388375,10.985403505859374,8.415735,10.944463505859375Q8.443094,10.903513505859376,8.46194,10.858013505859375Q8.480785000000001,10.812523505859374,8.490393,10.764223505859375Q8.5,10.715923505859376,8.5,10.666673505859375L8.5,5.333343505859375Q8.5,5.284097805859375,8.490393,5.235798405859375Q8.480785000000001,5.187498505859375,8.46194,5.142001505859375Q8.443094,5.096504505859375,8.415735,5.055558505859375Q8.388375,5.014612505859375,8.353553,4.979790505859375Q8.318731,4.944968505859375,8.277785,4.917608505859375Q8.236839,4.890249505859375,8.191342,4.871403505859375Q8.145845,4.852558505859375,8.0975451,4.842950505859375Q8.0492457,4.833343505859375,8,4.833343505859375Q7.9507543,4.833343505859375,7.9024549,4.842950505859375Q7.854155,4.852558505859375,7.808658,4.871403505859375Q7.763161,4.890249505859375,7.722215,4.917608505859375Q7.681269,4.944968505859375,7.646447,4.979790505859375Q7.611625,5.014612505859375,7.584265,5.055558505859375Q7.556906,5.096504505859375,7.53806,5.142001505859375Q7.519215,5.187498505859375,7.509607,5.235798405859375Q7.5,5.284097805859375,7.5,5.333343505859375Z" fill-rule="evenodd" fill="#2462F9" fill-opacity="1"/></g><g><path d="M5.3333282470703125,8.5L10.666658247070313,8.5Q10.715908247070313,8.5,10.764208247070313,8.490393Q10.812508247070312,8.480785000000001,10.857998247070313,8.46194Q10.903498247070313,8.443094,10.944448247070312,8.415735Q10.985388247070311,8.388375,11.020218247070313,8.353553Q11.055038247070312,8.318731,11.082398247070312,8.277785Q11.109758247070314,8.236839,11.128598247070313,8.191342Q11.147448247070312,8.145845,11.157058247070314,8.0975451Q11.166658247070313,8.0492457,11.166658247070313,8Q11.166658247070313,7.9507543,11.157058247070314,7.9024549Q11.147448247070312,7.854155,11.128598247070313,7.808658Q11.109758247070314,7.763161,11.082398247070312,7.722215Q11.055038247070312,7.681269,11.020218247070313,7.646447Q10.985388247070311,7.611625,10.944448247070312,7.584265Q10.903498247070313,7.556906,10.857998247070313,7.53806Q10.812508247070312,7.519215,10.764208247070313,7.509607Q10.715908247070313,7.5,10.666658247070313,7.5L5.3333282470703125,7.5Q5.284082547070312,7.5,5.235783147070313,7.509607Q5.187483247070313,7.519215,5.141986247070313,7.53806Q5.096489247070313,7.556906,5.055543247070313,7.584265Q5.014597247070313,7.611625,4.979775247070313,7.646447Q4.944953247070313,7.681269,4.917593247070313,7.722215Q4.890234247070312,7.763161,4.871388247070312,7.808658Q4.8525432470703125,7.854155,4.842935247070312,7.9024549Q4.8333282470703125,7.9507543,4.8333282470703125,8Q4.8333282470703125,8.0492457,4.842935247070312,8.0975451Q4.8525432470703125,8.145845,4.871388247070312,8.191342Q4.890234247070312,8.236839,4.917593247070313,8.277785Q4.944953247070313,8.318731,4.979775247070313,8.353553Q5.014597247070313,8.388375,5.055543247070313,8.415735Q5.096489247070313,8.443094,5.141986247070313,8.46194Q5.187483247070313,8.480785000000001,5.235783147070313,8.490393Q5.284082547070312,8.5,5.3333282470703125,8.5Z" fill-rule="evenodd" fill="#2462F9" fill-opacity="1"/></g></g></svg>