<svg t="1681281392479" class="icon" viewBox="0 0 1024 1024" version="1.1" xmlns="http://www.w3.org/2000/svg" p-id="3535" width="48" height="48"><path d="M855.04 994.304H174.08c-78.848 0-143.36-64.512-143.36-143.36v-680.96c0-78.848 64.512-143.36 143.36-143.36h578.56c22.528 0 40.96 18.432 40.96 40.96s-18.432 40.96-40.96 40.96H174.08c-33.792 0-61.44 27.648-61.44 61.44v680.96c0 33.792 27.648 61.44 61.44 61.44h680.96c33.792 0 61.44-27.648 61.44-61.44v-450.56c0-22.528 18.432-40.96 40.96-40.96s40.96 18.432 40.96 40.96v450.56c0 78.848-64 143.36-143.36 143.36z" fill="#333333" p-id="3536"></path><path d="M378.368 757.76c-10.24 0-20.992-4.096-29.184-11.776-15.872-15.872-15.872-41.984 0-57.856L928.768 108.544c15.872-15.872 41.984-15.872 57.856 0 15.872 15.872 15.872 41.984 0 57.856L407.552 745.984c-8.192 7.68-18.432 11.776-29.184 11.776z" fill="#333333" p-id="3537"></path></svg>