<svg t="1681265872959" class="icon" viewBox="0 0 1024 1024" version="1.1" xmlns="http://www.w3.org/2000/svg" p-id="13261" width="30px" height="30px"><path d="M959.36 218.208A95.68 95.68 0 0 0 864 128.096h-96V96.032a96 96 0 0 0-96-96H352a96 96 0 0 0-96 96v32.032H160a95.68 95.68 0 0 0-95.392 90.112H64v69.856a64 64 0 0 0 64 64v544a128 128 0 0 0 128 128h512a128 128 0 0 0 128-128v-544a64 64 0 0 0 64-64V218.208h-0.64zM320 96.064a32 32 0 0 1 32-32h320a32 32 0 0 1 32 32v32H320v-32z m512 800c0 35.264-28.736 64-64 64H256c-35.296 0-64-28.736-64-64v-544h640v544z m64-640.032v32H128V224.064a32 32 0 0 1 32-32h704a32 32 0 0 1 32 32v31.968z" fill="#333333" p-id="13262"></path><path d="M288 896.192h64a32 32 0 0 0 32-32v-416a32 32 0 0 0-32-32H288a32 32 0 0 0-32 32v416a32 32 0 0 0 32 32z m0-448.032h64v416H288v-416zM480 896.192h64a32 32 0 0 0 32-32v-416a32 32 0 0 0-32-32h-64a32 32 0 0 0-32 32v416a32 32 0 0 0 32 32z m0-448.032h64v416h-64v-416zM672 896.192h64a32 32 0 0 0 32-32v-416a32 32 0 0 0-32-32h-64a32 32 0 0 0-32 32v416a32 32 0 0 0 32 32z m0-448.032h64v416h-64v-416z" fill="#333333" p-id="13263"></path></svg>