<svg xmlns="http://www.w3.org/2000/svg" xmlns:xlink="http://www.w3.org/1999/xlink" fill="none" version="1.1" width="16" height="16" viewBox="0 0 16 16"><defs><clipPath id="master_svg0_249_27024"><rect x="0" y="0" width="16" height="16" rx="0"/></clipPath></defs><g clip-path="url(#master_svg0_249_27024)"><g><rect x="0" y="0" width="16" height="16" rx="0" fill="#FFFFFF" fill-opacity="0.009999999776482582"/></g><g><path d="M2.1666717529296875,13.666643505859374L2.1666717529296875,2.333343505859375Q2.1666717529296875,1.7120235058593751,2.6060115529296874,1.272683305859375Q3.0453517529296876,0.833343505859375,3.6666717529296875,0.833343505859375L12.333341752929687,0.833343505859375Q12.954671752929688,0.833343505859375,13.393971752929687,1.272683305859375Q13.833371752929688,1.7120235058593751,13.833371752929688,2.333343505859375L13.833371752929688,13.666643505859374Q13.833371752929688,14.288043505859376,13.393971752929687,14.727343505859375Q12.954671752929688,15.166643505859374,12.333341752929687,15.166643505859374L3.6666717529296875,15.166643505859374Q3.0453507529296875,15.166643505859374,2.6060115529296874,14.727343505859375Q2.1666717529296875,14.288043505859376,2.1666717529296875,13.666643505859374ZM3.1666717529296875,13.666643505859374Q3.1666717529296875,13.873743505859375,3.3131187529296877,14.020243505859375Q3.4595657529296875,14.166643505859374,3.6666717529296875,14.166643505859374L12.333341752929687,14.166643505859374Q12.540441752929688,14.166643505859374,12.686871752929688,14.020243505859375Q12.833371752929688,13.873743505859375,12.833371752929688,13.666643505859374L12.833371752929688,2.333343505859375Q12.833371752929688,2.126238505859375,12.686871752929688,1.979790505859375Q12.540441752929688,1.833343505859375,12.333341752929687,1.833343505859375L3.6666717529296875,1.833343505859375Q3.4595647529296873,1.833343505859375,3.3131187529296877,1.979790505859375Q3.1666717529296875,2.126236505859375,3.1666717529296875,2.333343505859375L3.1666717529296875,13.666643505859374Z" fill="#2462F9" fill-opacity="1"/></g><g><path d="M7,5.166656494140625L11,5.166656494140625Q11.04925,5.166656494140625,11.09755,5.157049494140625Q11.14584,5.147441494140625,11.19134,5.128596494140625Q11.23684,5.109750494140625,11.27778,5.082391494140625Q11.31873,5.055031494140625,11.35355,5.020209494140625Q11.38837,4.985387494140625,11.41573,4.944441494140625Q11.44309,4.903495494140625,11.46194,4.857998494140625Q11.48078,4.812501494140625,11.49039,4.764201594140625Q11.5,4.715902194140625,11.5,4.666656494140625Q11.5,4.617410794140625,11.49039,4.569111394140625Q11.48078,4.520811494140625,11.46194,4.475314494140625Q11.44309,4.429817494140625,11.41573,4.388871494140625Q11.38837,4.347925494140625,11.35355,4.313103494140625Q11.31873,4.278281494140625,11.27778,4.250921494140625Q11.23684,4.223562494140625,11.19134,4.204716494140625Q11.14584,4.185871494140625,11.09755,4.176263494140625Q11.04925,4.166656494140625,11,4.166656494140625L7,4.166656494140625Q6.9507543,4.166656494140625,6.9024549,4.176263494140625Q6.854155,4.185871494140625,6.808658,4.204716494140625Q6.763161,4.223562494140625,6.722215,4.250921494140625Q6.681269,4.278281494140625,6.646447,4.313103494140625Q6.611625,4.347925494140625,6.584265,4.388871494140625Q6.556906,4.429817494140625,6.53806,4.475314494140625Q6.519215,4.520811494140625,6.509607,4.569111394140625Q6.5,4.617410794140625,6.5,4.666656494140625Q6.5,4.715902194140625,6.509607,4.764201594140625Q6.519215,4.812501494140625,6.53806,4.857998494140625Q6.556906,4.903495494140625,6.584265,4.944441494140625Q6.611625,4.985387494140625,6.646447,5.020209494140625Q6.681269,5.055031494140625,6.722215,5.082391494140625Q6.763161,5.109750494140625,6.808658,5.128596494140625Q6.854155,5.147441494140625,6.9024549,5.157049494140625Q6.9507543,5.166656494140625,7,5.166656494140625Z" fill-rule="evenodd" fill="#2462F9" fill-opacity="1"/></g><g><path d="M7,8.5L11,8.5Q11.04925,8.5,11.09755,8.490393Q11.14584,8.480785000000001,11.19134,8.46194Q11.23684,8.443094,11.27778,8.415735Q11.31873,8.388375,11.35355,8.353553Q11.38837,8.318731,11.41573,8.277785Q11.44309,8.236839,11.46194,8.191342Q11.48078,8.145845,11.49039,8.0975451Q11.5,8.0492457,11.5,8Q11.5,7.9507543,11.49039,7.9024549Q11.48078,7.854155,11.46194,7.808658Q11.44309,7.763161,11.41573,7.722215Q11.38837,7.681269,11.35355,7.646447Q11.31873,7.611625,11.27778,7.584265Q11.23684,7.556906,11.19134,7.53806Q11.14584,7.519215,11.09755,7.509607Q11.04925,7.5,11,7.5L7,7.5Q6.9507543,7.5,6.9024549,7.509607Q6.854155,7.519215,6.808658,7.53806Q6.763161,7.556906,6.722215,7.584265Q6.681269,7.611625,6.646447,7.646447Q6.611625,7.681269,6.584265,7.722215Q6.556906,7.763161,6.53806,7.808658Q6.519215,7.854155,6.509607,7.9024549Q6.5,7.9507543,6.5,8Q6.5,8.0492457,6.509607,8.0975451Q6.519215,8.145845,6.53806,8.191342Q6.556906,8.236839,6.584265,8.277785Q6.611625,8.318731,6.646447,8.353553Q6.681269,8.388375,6.722215,8.415735Q6.763161,8.443094,6.808658,8.46194Q6.854155,8.480785000000001,6.9024549,8.490393Q6.9507543,8.5,7,8.5Z" fill-rule="evenodd" fill="#2462F9" fill-opacity="1"/></g><g><path d="M7,11.833343505859375L11,11.833343505859375Q11.04925,11.833343505859375,11.09755,11.823736505859374Q11.14584,11.814128505859376,11.19134,11.795283505859375Q11.23684,11.776437505859375,11.27778,11.749078505859375Q11.31873,11.721718505859375,11.35355,11.686896505859375Q11.38837,11.652074505859375,11.41573,11.611128505859375Q11.44309,11.570182505859375,11.46194,11.524685505859376Q11.48078,11.479188505859375,11.49039,11.430888605859375Q11.5,11.382589205859375,11.5,11.333343505859375Q11.5,11.284097805859375,11.49039,11.235798405859375Q11.48078,11.187498505859375,11.46194,11.142001505859374Q11.44309,11.096504505859375,11.41573,11.055558505859375Q11.38837,11.014612505859375,11.35355,10.979790505859375Q11.31873,10.944968505859375,11.27778,10.917608505859375Q11.23684,10.890249505859375,11.19134,10.871403505859375Q11.14584,10.852558505859374,11.09755,10.842950505859376Q11.04925,10.833343505859375,11,10.833343505859375L7,10.833343505859375Q6.9507543,10.833343505859375,6.9024549,10.842950505859376Q6.854155,10.852558505859374,6.808658,10.871403505859375Q6.763161,10.890249505859375,6.722215,10.917608505859375Q6.681269,10.944968505859375,6.646447,10.979790505859375Q6.611625,11.014612505859375,6.584265,11.055558505859375Q6.556906,11.096504505859375,6.53806,11.142001505859374Q6.519215,11.187498505859375,6.509607,11.235798405859375Q6.5,11.284097805859375,6.5,11.333343505859375Q6.5,11.382589205859375,6.509607,11.430888605859375Q6.519215,11.479188505859375,6.53806,11.524685505859376Q6.556906,11.570182505859375,6.584265,11.611128505859375Q6.611625,11.652074505859375,6.646447,11.686896505859375Q6.681269,11.721718505859375,6.722215,11.749078505859375Q6.763161,11.776437505859375,6.808658,11.795283505859375Q6.854155,11.814128505859376,6.9024549,11.823736505859374Q6.9507543,11.833343505859375,7,11.833343505859375Z" fill-rule="evenodd" fill="#2462F9" fill-opacity="1"/></g><g><path d="M5.666658247070313,4.666667Q5.666658247070313,4.732328,5.653848247070313,4.796727Q5.641038247070313,4.861126,5.615918247070312,4.921789Q5.5907882470703125,4.982452,5.5543082470703125,5.03705Q5.517828247070312,5.09164,5.471398247070312,5.13807Q5.424968247070312,5.1845,5.370378247070312,5.22098Q5.315780247070313,5.25746,5.255117247070313,5.28259Q5.194454247070312,5.30771,5.130055247070312,5.32052Q5.065656247070312,5.33333,4.999995247070313,5.33333Q4.934334247070312,5.33333,4.869934247070312,5.32052Q4.8055352470703125,5.30771,4.744872247070313,5.28259Q4.684210247070313,5.25746,4.629615247070313,5.22098Q4.575019247070313,5.1845,4.528590247070312,5.13807Q4.482161247070312,5.09164,4.445682247070312,5.03705Q4.409202547070312,4.982452,4.384075247070313,4.921789Q4.358947847070312,4.861126,4.346138047070313,4.796727Q4.3333282470703125,4.732328,4.3333282470703125,4.666667Q4.3333282470703125,4.601006,4.346138047070313,4.536606Q4.358947847070312,4.472207,4.384075247070313,4.411544Q4.409202547070312,4.350882,4.445682247070312,4.296287Q4.482161247070312,4.241691,4.528590247070312,4.195262Q4.575019247070313,4.148833,4.629614247070313,4.112354Q4.684210247070313,4.0758743,4.744872247070313,4.050747Q4.8055352470703125,4.0256196,4.869934247070312,4.0128098Q4.934334247070312,4,4.999995247070313,4Q5.065656247070312,4,5.130055247070312,4.0128098Q5.194454247070312,4.0256196,5.255117247070313,4.050747Q5.315780247070313,4.0758743,5.370378247070312,4.112354Q5.424968247070312,4.148833,5.471398247070312,4.195262Q5.517828247070312,4.241691,5.5543082470703125,4.296286Q5.5907882470703125,4.350882,5.615918247070312,4.411544Q5.641038247070313,4.472207,5.653848247070313,4.536606Q5.666658247070313,4.601006,5.666658247070313,4.666667Z" fill="#2462F9" fill-opacity="1"/></g><g><path d="M5.666658247070313,8.000010505859375Q5.666658247070313,8.065671505859376,5.653848247070313,8.130070505859376Q5.641038247070313,8.194469505859376,5.615918247070312,8.255132505859375Q5.5907882470703125,8.315795505859375,5.5543082470703125,8.370393505859376Q5.517828247070312,8.424983505859375,5.471398247070312,8.471413505859374Q5.424968247070312,8.517843505859375,5.370378247070312,8.554323505859376Q5.315780247070313,8.590803505859375,5.255117247070313,8.615933505859374Q5.194454247070312,8.641053505859375,5.130055247070312,8.653863505859375Q5.065656247070312,8.666673505859375,4.999995247070313,8.666673505859375Q4.934334247070312,8.666673505859375,4.869934247070312,8.653863505859375Q4.8055352470703125,8.641053505859375,4.744872247070313,8.615933505859374Q4.684210247070313,8.590803505859375,4.629615247070313,8.554323505859376Q4.575019247070313,8.517843505859375,4.528590247070312,8.471413505859374Q4.482161247070312,8.424983505859375,4.445682247070312,8.370393505859376Q4.409202547070312,8.315795505859375,4.384075247070313,8.255132505859375Q4.358947847070312,8.194469505859376,4.346138047070313,8.130070505859376Q4.3333282470703125,8.065671505859376,4.3333282470703125,8.000010505859375Q4.3333282470703125,7.934349505859375,4.346138047070313,7.869949505859375Q4.358947847070312,7.805550505859375,4.384075247070313,7.744887505859375Q4.409202547070312,7.684225505859375,4.445682247070312,7.629630505859375Q4.482161247070312,7.575034505859375,4.528590247070312,7.528605505859375Q4.575019247070313,7.482176505859375,4.629614247070313,7.445697505859375Q4.684210247070313,7.409217805859375,4.744872247070313,7.384090505859375Q4.8055352470703125,7.358963105859375,4.869934247070312,7.346153305859375Q4.934334247070312,7.333343505859375,4.999995247070313,7.333343505859375Q5.065656247070312,7.333343505859375,5.130055247070312,7.346153305859375Q5.194454247070312,7.358963105859375,5.255117247070313,7.384090505859375Q5.315780247070313,7.409217805859375,5.370378247070312,7.445697505859375Q5.424968247070312,7.482176505859375,5.471398247070312,7.528605505859375Q5.517828247070312,7.575034505859375,5.5543082470703125,7.629629505859375Q5.5907882470703125,7.684225505859375,5.615918247070312,7.744887505859375Q5.641038247070313,7.805550505859375,5.653848247070313,7.869949505859375Q5.666658247070313,7.934349505859375,5.666658247070313,8.000010505859375Z" fill="#2462F9" fill-opacity="1"/></g><g><path d="M5.666658247070313,11.333323494140625Q5.666658247070313,11.398984494140626,5.653848247070313,11.463383494140626Q5.641038247070313,11.527782494140626,5.615918247070312,11.588445494140625Q5.5907882470703125,11.649108494140625,5.5543082470703125,11.703706494140626Q5.517828247070312,11.758296494140625,5.471398247070312,11.804726494140624Q5.424968247070312,11.851156494140625,5.370378247070312,11.887636494140626Q5.315780247070313,11.924116494140625,5.255117247070313,11.949246494140624Q5.194454247070312,11.974366494140625,5.130055247070312,11.987176494140625Q5.065656247070312,11.999986494140625,4.999995247070313,11.999986494140625Q4.934334247070312,11.999986494140625,4.869934247070312,11.987176494140625Q4.8055352470703125,11.974366494140625,4.744872247070313,11.949246494140624Q4.684210247070313,11.924116494140625,4.629615247070313,11.887636494140626Q4.575019247070313,11.851156494140625,4.528590247070312,11.804726494140624Q4.482161247070312,11.758296494140625,4.445682247070312,11.703706494140626Q4.409202547070312,11.649108494140625,4.384075247070313,11.588445494140625Q4.358947847070312,11.527782494140626,4.346138047070313,11.463383494140626Q4.3333282470703125,11.398984494140626,4.3333282470703125,11.333323494140625Q4.3333282470703125,11.267662494140625,4.346138047070313,11.203262494140626Q4.358947847070312,11.138863494140624,4.384075247070313,11.078200494140624Q4.409202547070312,11.017538494140625,4.445682247070312,10.962943494140625Q4.482161247070312,10.908347494140624,4.528590247070312,10.861918494140625Q4.575019247070313,10.815489494140625,4.629614247070313,10.779010494140625Q4.684210247070313,10.742530794140626,4.744872247070313,10.717403494140624Q4.8055352470703125,10.692276094140626,4.869934247070312,10.679466294140624Q4.934334247070312,10.666656494140625,4.999995247070313,10.666656494140625Q5.065656247070312,10.666656494140625,5.130055247070312,10.679466294140624Q5.194454247070312,10.692276094140626,5.255117247070313,10.717403494140624Q5.315780247070313,10.742530794140626,5.370378247070312,10.779010494140625Q5.424968247070312,10.815489494140625,5.471398247070312,10.861918494140625Q5.517828247070312,10.908347494140624,5.5543082470703125,10.962942494140625Q5.5907882470703125,11.017538494140625,5.615918247070312,11.078200494140624Q5.641038247070313,11.138863494140624,5.653848247070313,11.203262494140626Q5.666658247070313,11.267662494140625,5.666658247070313,11.333323494140625Z" fill="#2462F9" fill-opacity="1"/></g></g></svg>