<svg xmlns="http://www.w3.org/2000/svg" xmlns:xlink="http://www.w3.org/1999/xlink" fill="none" version="1.1" width="16" height="16" viewBox="0 0 16 16"><defs><clipPath id="master_svg0_249_26997"><rect x="0" y="0" width="16" height="16" rx="0"/></clipPath></defs><g clip-path="url(#master_svg0_249_26997)"><g><rect x="0" y="0" width="16" height="16" rx="0" fill="#FFFFFF" fill-opacity="0.009999999776482582"/></g><g><path d="M2.666667,2.5L7.33333,2.5Q7.38258,2.5,7.43088,2.490393Q7.47918,2.480785,7.52467,2.4619400000000002Q7.57017,2.443094,7.61112,2.415735Q7.65206,2.388375,7.68689,2.353553Q7.72171,2.318731,7.74907,2.277785Q7.77643,2.236839,7.79527,2.191342Q7.81412,2.145845,7.82373,2.0975451Q7.83333,2.0492457,7.83333,2Q7.83333,1.9507543,7.82373,1.9024549Q7.81412,1.854155,7.79527,1.8086579999999999Q7.77643,1.763161,7.74907,1.722215Q7.72171,1.681269,7.68689,1.646447Q7.65206,1.611625,7.61112,1.584265Q7.57017,1.5569060000000001,7.52467,1.53806Q7.47918,1.519215,7.43088,1.509607Q7.38258,1.5,7.33333,1.5L2.666667,1.5Q2.183417,1.5,1.841709,1.841709Q1.5,2.183417,1.5,2.666667L1.5,13.3333Q1.5,13.8166,1.841711,14.1583Q2.183416,14.5,2.666667,14.5L13.3333,14.5Q13.8166,14.5,14.1583,14.1583Q14.5,13.8166,14.5,13.3333L14.5,8.66667Q14.5,8.61742,14.4904,8.56912Q14.4808,8.52082,14.4619,8.47532Q14.4431,8.429829999999999,14.4157,8.38888Q14.3884,8.347940000000001,14.3536,8.31311Q14.3187,8.27829,14.2778,8.25093Q14.2368,8.223569999999999,14.1913,8.20473Q14.1458,8.185880000000001,14.0975,8.176269999999999Q14.0492,8.16667,14,8.16667Q13.9508,8.16667,13.9025,8.176269999999999Q13.8542,8.185880000000001,13.8087,8.20473Q13.7632,8.223569999999999,13.7222,8.25093Q13.6813,8.27829,13.6464,8.31311Q13.6116,8.347940000000001,13.5843,8.38888Q13.5569,8.429829999999999,13.5381,8.47532Q13.5192,8.52082,13.5096,8.56912Q13.5,8.61742,13.5,8.66667L13.5,13.3333Q13.5,13.5,13.3333,13.5L2.666667,13.5Q2.5,13.5,2.5,13.3333L2.5,2.666667Q2.5,2.5,2.666667,2.5Z" fill-rule="evenodd" fill="#2462F9" fill-opacity="1"/></g><g><path d="M11.211393906249999,1.646369L11.211103906249999,1.646658L4.31273890625,8.55329Q4.24250990625,8.62361,4.20450690625,8.71543Q4.16650390625,8.80726,4.16650390625,8.90663L4.16650390625,11.33333Q4.16650390625,11.38258,4.17611090625,11.43088Q4.18571890625,11.47918,4.20456390625,11.52468Q4.22340990625,11.57017,4.25076890625,11.61112Q4.27812890625,11.65207,4.31295090625,11.68689Q4.34777290625,11.72171,4.38871890625,11.74907Q4.42966490625,11.77643,4.47516190625,11.79527Q4.52065890625,11.81412,4.56895880625,11.82372Q4.61725820625,11.83333,4.66650390625,11.83333L7.10557390625,11.83333Q7.20505390625,11.83333,7.296963906249999,11.79525Q7.38887390625,11.75717,7.45920390625,11.68681L14.35346390625,4.78951Q14.38827390625,4.75469,14.41561390625,4.71375Q14.44296390625,4.67281,14.46179390625,4.62732Q14.48063390625,4.58184,14.49023390625,4.53355Q14.49983390625,4.48526,14.49983390625,4.436030000000001Q14.49983390625,4.3868,14.49023390625,4.338509999999999Q14.48063390625,4.29023,14.46179390625,4.24474Q14.44296390625,4.199260000000001,14.41561390625,4.15832Q14.38827390625,4.11738,14.35346390625,4.08256L11.918503906249999,1.6465239999999999Q11.84819390625,1.576183,11.75631390625,1.538102Q11.66443390625,1.500022,11.56498390625,1.5Q11.465523906249999,1.499978,11.37363390625,1.538018Q11.28173390625,1.576058,11.211393906249999,1.646369ZM11.56500390625,2.707396L5.16650390625,9.11356L5.16650390625,10.83333L6.8984039062499996,10.83333L13.29288390625,4.436030000000001L11.56500390625,2.707396Z" fill-rule="evenodd" fill="#2462F9" fill-opacity="1"/></g></g></svg>