<svg xmlns="http://www.w3.org/2000/svg" xmlns:xlink="http://www.w3.org/1999/xlink" fill="none" version="1.1" width="16" height="16" viewBox="0 0 16 16"><defs><clipPath id="master_svg0_249_27013"><rect x="0" y="0" width="16" height="16" rx="0"/></clipPath></defs><g clip-path="url(#master_svg0_249_27013)"><g><path d="M10.333343505859375,11.833343505859375L14.333343505859375,11.833343505859375Q14.382593505859376,11.833343505859375,14.430893505859375,11.823736505859374Q14.479183505859375,11.814128505859376,14.524683505859375,11.795283505859375Q14.570183505859376,11.776437505859375,14.611123505859375,11.749078505859375Q14.652073505859375,11.721718505859375,14.686893505859375,11.686896505859375Q14.721713505859375,11.652074505859375,14.749073505859375,11.611128505859375Q14.776433505859375,11.570182505859375,14.795283505859375,11.524685505859376Q14.814123505859374,11.479188505859375,14.823733505859375,11.430888605859375Q14.833343505859375,11.382589205859375,14.833343505859375,11.333343505859375Q14.833343505859375,11.284097805859375,14.823733505859375,11.235798405859375Q14.814123505859374,11.187498505859375,14.795283505859375,11.142001505859374Q14.776433505859375,11.096504505859375,14.749073505859375,11.055558505859375Q14.721713505859375,11.014612505859375,14.686893505859375,10.979790505859375Q14.652073505859375,10.944968505859375,14.611123505859375,10.917608505859375Q14.570183505859376,10.890249505859375,14.524683505859375,10.871403505859375Q14.479183505859375,10.852558505859374,14.430893505859375,10.842950505859376Q14.382593505859376,10.833343505859375,14.333343505859375,10.833343505859375L10.333343505859375,10.833343505859375Q10.284097805859375,10.833343505859375,10.235798405859375,10.842950505859376Q10.187498505859375,10.852558505859374,10.142001505859374,10.871403505859375Q10.096504505859375,10.890249505859375,10.055558505859375,10.917608505859375Q10.014612505859375,10.944968505859375,9.979790505859375,10.979790505859375Q9.944968505859375,11.014612505859375,9.917608505859375,11.055558505859375Q9.890249505859375,11.096504505859375,9.871403505859375,11.142001505859374Q9.852558505859374,11.187498505859375,9.842950505859376,11.235798405859375Q9.833343505859375,11.284097805859375,9.833343505859375,11.333343505859375Q9.833343505859375,11.382589205859375,9.842950505859376,11.430888605859375Q9.852558505859374,11.479188505859375,9.871403505859375,11.524685505859376Q9.890249505859375,11.570182505859375,9.917608505859375,11.611128505859375Q9.944968505859375,11.652074505859375,9.979790505859375,11.686896505859375Q10.014612505859375,11.721718505859375,10.055558505859375,11.749078505859375Q10.096504505859375,11.776437505859375,10.142001505859374,11.795283505859375Q10.187498505859375,11.814128505859376,10.235798405859375,11.823736505859374Q10.284097805859375,11.833343505859375,10.333343505859375,11.833343505859375Z" fill-rule="evenodd" fill="#2462F9" fill-opacity="1"/></g><g><path d="M13.020415494140625,9.313175494140625L13.020357494140624,9.313117494140625Q12.950030494140625,9.242784494140626,12.858140494140624,9.204720494140625Q12.766251494140626,9.166656494140625,12.666790079140625,9.166656494140625Q12.653855894140625,9.166656494140625,12.640938994140624,9.167325494140625Q12.548316494140625,9.172120494140625,12.463575494140626,9.209815494140624Q12.378834494140625,9.247509494140624,12.313250494140625,9.313088494140626Q12.242918494140625,9.383415494140625,12.204854494140625,9.475305494140626Q12.166790494140624,9.567195094140626,12.166790494140624,9.666656494140625Q12.166790494140624,9.679590694140625,12.167458494140625,9.692507494140624Q12.172253494140625,9.785129494140625,12.209948494140624,9.869870494140624Q12.247643494140625,9.954611494140625,12.313222494140625,10.020195494140625L12.313280494140624,10.020253494140626L13.626230494140625,11.333306494140626L12.313290494140626,12.646246494140625L12.313103494140625,12.646436494140625Q12.242776494140625,12.716766494140625,12.204716494140625,12.808646494140625Q12.166656494140625,12.900536494140624,12.166656494140625,12.999986494140625Q12.166656494140625,13.099446494140626,12.204716494140625,13.191336494140625Q12.242776494140625,13.283216494140625,12.313103494140625,13.353546494140625Q12.383429494140625,13.423866494140626,12.475314494140624,13.461926494140625Q12.567200294140624,13.499986494140625,12.666656494140625,13.499986494140625Q12.766112694140626,13.499986494140625,12.857998494140626,13.461926494140625Q12.949883494140625,13.423866494140626,13.020209494140625,13.353546494140625L13.020397494140624,13.353356494140625L14.686876494140625,11.686876494140625Q14.721696494140625,11.652056494140625,14.749056494140625,11.611106494140625Q14.776416494140625,11.570166494140626,14.795256494140625,11.524666494140625Q14.814106494140624,11.479176494140624,14.823716494140625,11.430876494140625Q14.833326494140625,11.382576494140626,14.833326494140625,11.333336494140624Q14.833326494140625,11.284086494140626,14.823716494140625,11.235786494140624Q14.814116494140626,11.187496494140625,14.795266494140625,11.141996494140624Q14.776426494140626,11.096496494140625,14.749066494140624,11.055556494140625Q14.721706494140625,11.014606494140626,14.686886494140625,10.979786494140624L13.020415494140625,9.313175494140625Z" fill-rule="evenodd" fill="#2462F9" fill-opacity="1"/></g><g><path d="M2.666656494140625,14.166643505859374L9.490186494140625,14.166643505859374Q9.536066494140625,14.166643505859374,9.581176494140625,14.158343505859374Q9.623926494140626,14.150443505859375,9.664666494140626,14.135243505859375Q9.705416494140625,14.120043505859375,9.742926494140624,14.098143505859374Q9.780446494140625,14.076143505859376,9.813596494140626,14.048043505859376Q9.846756494140624,14.019843505859376,9.874566494140625,13.986443505859375Q9.902376494140626,13.953043505859375,9.923996494140624,13.915343505859376Q9.945616494140625,13.877543505859375,9.960396494140625,13.836743505859374Q9.975186494140624,13.795843505859375,9.982686494140625,13.752943505859376Q9.990186494140625,13.710143505859374,9.990186494140625,13.666643505859374Q9.990186494140625,13.617443505859375,9.980586494140624,13.569143505859374Q9.970976494140626,13.520843505859375,9.952126494140625,13.475343505859374Q9.933286494140624,13.429843505859376,9.905926494140624,13.388843505859375Q9.878566494140625,13.347943505859375,9.843746494140625,13.313143505859374Q9.808916494140625,13.278343505859375,9.767976494140624,13.250943505859375Q9.727026494140626,13.223543505859375,9.681526494140625,13.204743505859375Q9.636036494140626,13.185843505859374,9.587736494140625,13.176243505859375Q9.539436494140624,13.166643505859374,9.490186494140625,13.166643505859374L2.666656494140625,13.166643505859374Q2.459546494140625,13.166643505859374,2.313101494140625,13.020243505859375Q2.166656494140625,12.873743505859375,2.166656494140625,12.666643505859374L2.166656494140625,3.333343505859375Q2.166656494140625,3.126237505859375,2.313103494140625,2.979790505859375Q2.459550494140625,2.833343505859375,2.666656494140625,2.833343505859375L13.333356494140626,2.833343505859375Q13.540456494140624,2.833343505859375,13.686856494140626,2.979788505859375Q13.833356494140626,3.126233505859375,13.833356494140626,3.333343505859375L13.833356494140626,8.666673505859375Q13.833356494140626,8.715923505859376,13.842956494140624,8.764223505859375Q13.852556494140625,8.812523505859374,13.871356494140626,8.858013505859375Q13.890256494140624,8.903513505859376,13.917556494140625,8.944463505859375Q13.944956494140625,8.985403505859374,13.979756494140625,9.020233505859375Q14.014556494140624,9.055053505859375,14.055556494140625,9.082413505859375Q14.096456494140625,9.109773505859376,14.141956494140626,9.128613505859375Q14.187456494140624,9.147463505859374,14.235756494140626,9.157073505859376Q14.284056494140625,9.166673505859375,14.333356494140626,9.166673505859375Q14.382556494140625,9.166673505859375,14.430856494140626,9.157073505859376Q14.479156494140625,9.147463505859374,14.524656494140626,9.128613505859375Q14.570156494140624,9.109773505859376,14.611156494140625,9.082413505859375Q14.652056494140625,9.055053505859375,14.686856494140626,9.020233505859375Q14.721656494140625,8.985403505859374,14.749056494140625,8.944463505859375Q14.776456494140625,8.903513505859376,14.795256494140625,8.858013505859375Q14.814156494140626,8.812523505859374,14.823756494140625,8.764223505859375Q14.833356494140626,8.715923505859376,14.833356494140626,8.666673505859375L14.833356494140626,3.333343505859375Q14.833356494140626,2.712022505859375,14.393956494140625,2.272685805859375Q13.954656494140625,1.833343505859375,13.333356494140626,1.833343505859375L2.666656494140625,1.833343505859375Q2.045337494140625,1.833343505859375,1.605996894140625,2.272683905859375Q1.166656494140625,2.712024505859375,1.166656494140625,3.333343505859375L1.166656494140625,12.666643505859374Q1.166656494140625,13.288043505859376,1.605998794140625,13.727343505859375Q2.045335494140625,14.166643505859374,2.666656494140625,14.166643505859374Z" fill-rule="evenodd" fill="#2462F9" fill-opacity="1"/></g><g><path d="M7.05078,7.32009L8.71744,5.320092Q8.83333,5.181025,8.83333,5.000000481878L8.83333,4.999943715Q8.83332,4.888666,8.78612,4.787897Q8.73891,4.687128,8.65343,4.615889Q8.51436,4.5,8.33333,4.5L8.33328,4.5Q8.222,4.500013,8.12123,4.547217Q8.02046,4.594422,7.94922,4.679908L6.66667,6.2189700000000006L5.384158,4.679965L5.384111,4.679908Q5.312863,4.594411,5.212078,4.547205Q5.111293,4.5,5.00000030655,4.5L4.99359961,4.500041Q4.816201,4.502312,4.679908,4.615889Q4.594411,4.687137,4.547205,4.787922Q4.5,4.888708,4.5,5L4.500041,5.00640039Q4.502312,5.183799,4.615889,5.320092L4.615937,5.320149L6.28256,7.32009Q6.31166,7.35501,6.34657,7.38411Q6.38441,7.41564,6.4276599999999995,7.43918Q6.47092,7.46272,6.51793,7.4773700000000005Q6.56495,7.4920100000000005,6.61392,7.49721Q6.66289,7.5024,6.71193,7.4979499999999994Q6.76098,7.4934899999999995,6.80821,7.47955Q6.85544,7.46561,6.89904,7.44272Q6.94265,7.41983,6.98095,7.38888Q7.0192499999999995,7.35792,7.05078,7.32009Z" fill-rule="evenodd" fill="#2462F9" fill-opacity="1"/></g><g><path d="M4.666656494140625,9.5L8.666656494140625,9.5Q8.715906494140626,9.5,8.764206494140625,9.490393Q8.812496494140625,9.480785000000001,8.857996494140625,9.46194Q8.903496494140626,9.443094,8.944436494140625,9.415735Q8.985386494140625,9.388375,9.020206494140625,9.353553Q9.055026494140625,9.318731,9.082386494140625,9.277785Q9.109746494140625,9.236839,9.128596494140625,9.191342Q9.147436494140624,9.145845,9.157046494140625,9.0975451Q9.166656494140625,9.0492457,9.166656494140625,9Q9.166656494140625,8.9507543,9.157046494140625,8.9024549Q9.147436494140624,8.854155,9.128596494140625,8.808658Q9.109746494140625,8.763161,9.082386494140625,8.722215Q9.055026494140625,8.681269,9.020206494140625,8.646447Q8.985386494140625,8.611625,8.944436494140625,8.584265Q8.903496494140626,8.556906,8.857996494140625,8.53806Q8.812496494140625,8.519214999999999,8.764206494140625,8.509607Q8.715906494140626,8.5,8.666656494140625,8.5L4.666656494140625,8.5Q4.617410794140625,8.5,4.569111394140625,8.509607Q4.520811494140625,8.519214999999999,4.475314494140625,8.53806Q4.429817494140625,8.556906,4.388871494140625,8.584265Q4.347925494140625,8.611625,4.313103494140625,8.646447Q4.278281494140625,8.681269,4.250921494140625,8.722215Q4.223562494140625,8.763161,4.204716494140625,8.808658Q4.185871494140625,8.854155,4.176263494140625,8.9024549Q4.166656494140625,8.9507543,4.166656494140625,9Q4.166656494140625,9.0492457,4.176263494140625,9.0975451Q4.185871494140625,9.145845,4.204716494140625,9.191342Q4.223562494140625,9.236839,4.250921494140625,9.277785Q4.278281494140625,9.318731,4.313103494140625,9.353553Q4.347925494140625,9.388375,4.388871494140625,9.415735Q4.429817494140625,9.443094,4.475314494140625,9.46194Q4.520811494140625,9.480785000000001,4.569111394140625,9.490393Q4.617410794140625,9.5,4.666656494140625,9.5Z" fill-rule="evenodd" fill="#2462F9" fill-opacity="1"/></g><g><path d="M4.666656494140625,7.5L8.666656494140625,7.5Q8.715906494140626,7.5,8.764206494140625,7.490393Q8.812496494140625,7.480785,8.857996494140625,7.46194Q8.903496494140626,7.443094,8.944436494140625,7.415735Q8.985386494140625,7.388375,9.020206494140625,7.353553Q9.055026494140625,7.318731,9.082386494140625,7.277785Q9.109746494140625,7.236839,9.128596494140625,7.191342Q9.147436494140624,7.145845,9.157046494140625,7.0975451Q9.166656494140625,7.0492457,9.166656494140625,7Q9.166656494140625,6.9507543,9.157046494140625,6.9024549Q9.147436494140624,6.854155,9.128596494140625,6.808658Q9.109746494140625,6.763161,9.082386494140625,6.722215Q9.055026494140625,6.681269,9.020206494140625,6.646447Q8.985386494140625,6.611625,8.944436494140625,6.584265Q8.903496494140626,6.556906,8.857996494140625,6.53806Q8.812496494140625,6.519215,8.764206494140625,6.509607Q8.715906494140626,6.5,8.666656494140625,6.5L4.666656494140625,6.5Q4.617410794140625,6.5,4.569111394140625,6.509607Q4.520811494140625,6.519215,4.475314494140625,6.53806Q4.429817494140625,6.556906,4.388871494140625,6.584265Q4.347925494140625,6.611625,4.313103494140625,6.646447Q4.278281494140625,6.681269,4.250921494140625,6.722215Q4.223562494140625,6.763161,4.204716494140625,6.808658Q4.185871494140625,6.854155,4.176263494140625,6.9024549Q4.166656494140625,6.9507543,4.166656494140625,7Q4.166656494140625,7.0492457,4.176263494140625,7.0975451Q4.185871494140625,7.145845,4.204716494140625,7.191342Q4.223562494140625,7.236839,4.250921494140625,7.277785Q4.278281494140625,7.318731,4.313103494140625,7.353553Q4.347925494140625,7.388375,4.388871494140625,7.415735Q4.429817494140625,7.443094,4.475314494140625,7.46194Q4.520811494140625,7.480785,4.569111394140625,7.490393Q4.617410794140625,7.5,4.666656494140625,7.5Z" fill-rule="evenodd" fill="#2462F9" fill-opacity="1"/></g><g><path d="M6.166656494140625,7L6.166656494140625,11Q6.166656494140625,11.04925,6.176263494140625,11.09755Q6.185871494140625,11.14584,6.204716494140625,11.19134Q6.223562494140625,11.23684,6.250921494140625,11.27778Q6.278281494140625,11.31873,6.313103494140625,11.35355Q6.347925494140625,11.38837,6.388871494140625,11.41573Q6.429817494140625,11.44309,6.475314494140625,11.46194Q6.520811494140625,11.48078,6.569111394140625,11.49039Q6.617410794140625,11.5,6.666656494140625,11.5Q6.715902194140625,11.5,6.764201594140625,11.49039Q6.812501494140625,11.48078,6.857998494140625,11.46194Q6.903495494140625,11.44309,6.944441494140625,11.41573Q6.985387494140625,11.38837,7.020209494140625,11.35355Q7.055031494140625,11.31873,7.082391494140625,11.27778Q7.109750494140625,11.23684,7.128596494140625,11.19134Q7.147441494140625,11.14584,7.157049494140625,11.09755Q7.166656494140625,11.04925,7.166656494140625,11L7.166656494140625,7Q7.166656494140625,6.9507543,7.157049494140625,6.9024549Q7.147441494140625,6.854155,7.128596494140625,6.808658Q7.109750494140625,6.763161,7.082391494140625,6.722215Q7.055031494140625,6.681269,7.020209494140625,6.646447Q6.985387494140625,6.611625,6.944441494140625,6.584265Q6.903495494140625,6.556906,6.857998494140625,6.53806Q6.812501494140625,6.519215,6.764201594140625,6.509607Q6.715902194140625,6.5,6.666656494140625,6.5Q6.617410794140625,6.5,6.569111394140625,6.509607Q6.520811494140625,6.519215,6.475314494140625,6.53806Q6.429817494140625,6.556906,6.388871494140625,6.584265Q6.347925494140625,6.611625,6.313103494140625,6.646447Q6.278281494140625,6.681269,6.250921494140625,6.722215Q6.223562494140625,6.763161,6.204716494140625,6.808658Q6.185871494140625,6.854155,6.176263494140625,6.9024549Q6.166656494140625,6.9507543,6.166656494140625,7Z" fill-rule="evenodd" fill="#2462F9" fill-opacity="1"/></g></g></svg>