<svg xmlns="http://www.w3.org/2000/svg" xmlns:xlink="http://www.w3.org/1999/xlink" fill="none" version="1.1" width="16" height="16" viewBox="0 0 16 16"><defs><clipPath id="master_svg0_249_27042"><rect x="0" y="0" width="16" height="16" rx="0"/></clipPath></defs><g clip-path="url(#master_svg0_249_27042)"><g><path d="M3.3333387529296874,15.166643505859374L6.6666717529296875,15.166643505859374Q6.715921752929687,15.166643505859374,6.7642217529296875,15.157043505859376Q6.812511752929687,15.147443505859375,6.858011752929688,15.128643505859374Q6.903511752929687,15.109743505859376,6.944451752929687,15.082443505859375Q6.985401752929688,15.055043505859375,7.020221752929688,15.020243505859375Q7.055041752929688,14.985443505859376,7.082401752929687,14.944443505859375Q7.109761752929687,14.903543505859375,7.128611752929688,14.858043505859374Q7.147451752929688,14.812543505859376,7.157061752929687,14.764243505859374Q7.1666717529296875,14.715943505859375,7.1666717529296875,14.666643505859374Q7.1666717529296875,14.617443505859375,7.157061752929687,14.569143505859374Q7.147451752929688,14.520843505859375,7.128611752929688,14.475343505859374Q7.109761752929687,14.429843505859376,7.082401752929687,14.388843505859375Q7.055041752929688,14.347943505859375,7.020221752929688,14.313143505859374Q6.985401752929688,14.278343505859375,6.944451752929687,14.250943505859375Q6.903511752929687,14.223543505859375,6.858011752929688,14.204743505859375Q6.812511752929687,14.185843505859374,6.7642217529296875,14.176243505859375Q6.715921752929687,14.166643505859374,6.6666717529296875,14.166643505859374L3.3333387529296874,14.166643505859374Q3.2642997529296878,14.166643505859374,3.2154857529296876,14.117843505859375Q3.1666717529296875,14.069043505859375,3.1666717529296875,14.000043505859376L3.1666717529296875,2.000010505859375Q3.1666717529296875,1.833343505859375,3.3333387529296874,1.833343505859375L12.666671752929688,1.833343505859375Q12.833371752929688,1.833343505859375,12.833371752929688,2.000010505859375L12.833371752929688,5.465913505859375Q12.833371752929688,5.515153505859375,12.842971752929687,5.563453505859375Q12.852571752929688,5.611753505859375,12.871371752929688,5.657253505859375Q12.890271752929687,5.702743505859375,12.917571752929687,5.743693505859375Q12.944971752929687,5.784643505859375,12.979771752929688,5.819463505859375Q13.014571752929687,5.854283505859375,13.055571752929687,5.881643505859375Q13.096471752929688,5.909003505859375,13.141971752929688,5.927853505859375Q13.187471752929687,5.946693505859375,13.235771752929688,5.956303505859375Q13.284071752929687,5.965913505859375,13.333371752929688,5.965913505859375Q13.382571752929687,5.965913505859375,13.430871752929688,5.956303505859375Q13.479171752929688,5.946693505859375,13.524671752929688,5.927853505859375Q13.570171752929687,5.909003505859375,13.611171752929687,5.881643505859375Q13.652071752929688,5.854283505859375,13.686871752929688,5.819463505859375Q13.721671752929687,5.784643505859375,13.749071752929687,5.743693505859375Q13.776471752929687,5.702743505859375,13.795271752929688,5.657253505859375Q13.814171752929688,5.611753505859375,13.823771752929687,5.563453505859375Q13.833371752929688,5.515153505859375,13.833371752929688,5.465913505859375L13.833371752929688,2.000010505859375Q13.833371752929688,1.516760505859375,13.491671752929687,1.175054505859375Q13.149971752929687,0.833343505859375,12.666671752929688,0.833343505859375L3.3333387529296874,0.833343505859375Q2.8500887529296874,0.833343505859375,2.5083807529296873,1.175052505859375Q2.1666717529296875,1.516760505859375,2.1666717529296875,2.000010505859375L2.1666717529296875,14.000043505859376Q2.1666717529296875,14.483243505859376,2.5083817529296875,14.824943505859375Q2.8500897529296876,15.166643505859374,3.3333387529296874,15.166643505859374Z" fill-rule="evenodd" fill="#2462F9" fill-opacity="1"/></g><g><path d="M5.3333282470703125,5.166656494140625L9.666658247070313,5.166656494140625Q9.715908247070313,5.166656494140625,9.764208247070313,5.157049494140625Q9.812508247070312,5.147441494140625,9.857998247070313,5.128596494140625Q9.903498247070313,5.109750494140625,9.944448247070312,5.082391494140625Q9.985388247070311,5.055031494140625,10.020218247070313,5.020209494140625Q10.055038247070312,4.985387494140625,10.082398247070312,4.944441494140625Q10.109758247070314,4.903495494140625,10.128598247070313,4.857998494140625Q10.147448247070312,4.812501494140625,10.157058247070314,4.764201594140625Q10.166658247070313,4.715902194140625,10.166658247070313,4.666656494140625Q10.166658247070313,4.617410794140625,10.157058247070314,4.569111394140625Q10.147448247070312,4.520811494140625,10.128598247070313,4.475314494140625Q10.109758247070314,4.429817494140625,10.082398247070312,4.388871494140625Q10.055038247070312,4.347925494140625,10.020218247070313,4.313103494140625Q9.985388247070311,4.278281494140625,9.944448247070312,4.250921494140625Q9.903498247070313,4.223562494140625,9.857998247070313,4.204716494140625Q9.812508247070312,4.185871494140625,9.764208247070313,4.176263494140625Q9.715908247070313,4.166656494140625,9.666658247070313,4.166656494140625L5.3333282470703125,4.166656494140625Q5.284082547070312,4.166656494140625,5.235783147070313,4.176263494140625Q5.187483247070313,4.185871494140625,5.141986247070313,4.204716494140625Q5.096489247070313,4.223562494140625,5.055543247070313,4.250921494140625Q5.014597247070313,4.278281494140625,4.979775247070313,4.313103494140625Q4.944953247070313,4.347925494140625,4.917593247070313,4.388871494140625Q4.890234247070312,4.429817494140625,4.871388247070312,4.475314494140625Q4.8525432470703125,4.520811494140625,4.842935247070312,4.569111394140625Q4.8333282470703125,4.617410794140625,4.8333282470703125,4.666656494140625Q4.8333282470703125,4.715902194140625,4.842935247070312,4.764201594140625Q4.8525432470703125,4.812501494140625,4.871388247070312,4.857998494140625Q4.890234247070312,4.903495494140625,4.917593247070313,4.944441494140625Q4.944953247070313,4.985387494140625,4.979775247070313,5.020209494140625Q5.014597247070313,5.055031494140625,5.055543247070313,5.082391494140625Q5.096489247070313,5.109750494140625,5.141986247070313,5.128596494140625Q5.187483247070313,5.147441494140625,5.235783147070313,5.157049494140625Q5.284082547070312,5.166656494140625,5.3333282470703125,5.166656494140625Z" fill-rule="evenodd" fill="#2462F9" fill-opacity="1"/></g><g><path d="M5.3333282470703125,7.5L6.999998247070312,7.5Q7.0492382470703125,7.5,7.097538247070313,7.490393Q7.145838247070312,7.480785,7.191338247070313,7.46194Q7.236838247070312,7.443094,7.277778247070312,7.415735Q7.318728247070313,7.388375,7.353548247070313,7.353553Q7.3883682470703125,7.318731,7.415728247070312,7.277785Q7.443088247070312,7.236839,7.461938247070313,7.191342Q7.480778247070313,7.145845,7.490388247070312,7.0975451Q7.499998247070312,7.0492457,7.499998247070312,7Q7.499998247070312,6.9507543,7.490388247070312,6.9024549Q7.480778247070313,6.854155,7.461938247070313,6.808658Q7.443088247070312,6.763161,7.415728247070312,6.722215Q7.3883682470703125,6.681269,7.353548247070313,6.646447Q7.318728247070313,6.611625,7.277778247070312,6.584265Q7.236838247070312,6.556906,7.191338247070313,6.53806Q7.145838247070312,6.519215,7.097538247070313,6.509607Q7.0492382470703125,6.5,6.999998247070312,6.5L5.3333282470703125,6.5Q5.284082547070312,6.5,5.235783147070313,6.509607Q5.187483247070313,6.519215,5.141986247070313,6.53806Q5.096489247070313,6.556906,5.055543247070313,6.584265Q5.014597247070313,6.611625,4.979775247070313,6.646447Q4.944953247070313,6.681269,4.917593247070313,6.722215Q4.890234247070312,6.763161,4.871388247070312,6.808658Q4.8525432470703125,6.854155,4.842935247070312,6.9024549Q4.8333282470703125,6.9507543,4.8333282470703125,7Q4.8333282470703125,7.0492457,4.842935247070312,7.0975451Q4.8525432470703125,7.145845,4.871388247070312,7.191342Q4.890234247070312,7.236839,4.917593247070313,7.277785Q4.944953247070313,7.318731,4.979775247070313,7.353553Q5.014597247070313,7.388375,5.055543247070313,7.415735Q5.096489247070313,7.443094,5.141986247070313,7.46194Q5.187483247070313,7.480785,5.235783147070313,7.490393Q5.284082547070312,7.5,5.3333282470703125,7.5Z" fill-rule="evenodd" fill="#2462F9" fill-opacity="1"/></g><g transform="matrix(0,1,-1,0,22.666671752929688,-6.6666717529296875)"><ellipse cx="18.00000524520874" cy="11.333333492279053" rx="3.3333334922790527" ry="3.3333334922790527" fill-opacity="0" stroke-opacity="1" stroke="#2462F9" fill="none" stroke-width="1" stroke-linecap="ROUND" stroke-linejoin="round"/></g><g><path d="M13.331885625,10.847851107421874L13.332065625,10.847663107421875Q13.402395625,10.777337107421875,13.440455625,10.685452107421876Q13.478515625,10.593566307421876,13.478515625,10.494110107421875Q13.478515625,10.394653907421874,13.440455625,10.302768107421874Q13.402395625,10.210883107421875,13.332065625,10.140557107421875L13.331785625,10.140271107421874Q13.329775625,10.138270107421874,13.327755625,10.136292107421875L13.327465625,10.136010107421875Q13.257435625,10.067773107421875,13.166865625,10.030942107421875Q13.076295625,9.994110107421875,12.978515625,9.994110107421875Q12.956005625,9.994110107421875,12.933585625,9.996133107421874Q12.753105625,10.012416107421876,12.624965625,10.140557107421875L12.624775625,10.140744107421876L10.978515625,11.787000107421875L10.332068625,11.140557107421875Q10.261742625,11.070230107421875,10.169857625,11.032170107421875Q10.077971825,10.994110107421875,9.978515625,10.994110107421875Q9.879059425,10.994110107421875,9.787173625,11.032170107421875Q9.695288625,11.070230107421875,9.624962625,11.140557107421875Q9.554635625,11.210883107421875,9.516575625,11.302768107421874Q9.478515625,11.394654107421875,9.478515625,11.494110107421875Q9.478515625,11.593570107421876,9.516575625,11.685450107421875Q9.554635625,11.777340107421875,9.624962625,11.847660107421875L10.624962625,12.847660107421875Q10.695288625,12.917990107421875,10.787173625,12.956050107421875Q10.879059625,12.994110107421875,10.978515625,12.994110107421875Q11.077975625,12.994110107421875,11.169855625,12.956050107421875Q11.261745625,12.917990107421875,11.332065625,12.847660107421875L13.331885625,10.847851107421874Z" fill-rule="evenodd" fill="#2462F9" fill-opacity="1"/></g></g></svg>