<svg xmlns="http://www.w3.org/2000/svg" xmlns:xlink="http://www.w3.org/1999/xlink" fill="none" version="1.1" width="16"
     height="16" viewBox="0 0 16 16">
    <defs>
        <clipPath id="master_svg0_249_27036">
            <rect x="0" y="0" width="16" height="16" rx="0"/>
        </clipPath>
    </defs>
    <g clip-path="url(#master_svg0_249_27036)">
        <g>
            <ellipse cx="7.999989986419678" cy="3.6666769981384277" rx="2.3333334922790527" ry="2.3333334922790527"
                     fill-opacity="0" stroke-opacity="1" stroke="#2462F9" fill="none" stroke-width="1"
                     stroke-linecap="ROUND" stroke-linejoin="round"/>
        </g>
        <g>
            <path d="M3.422883505859375,10.269143505859375Q5.038163505859375,8.833343505859375,7.333343505859375,8.833343505859375Q7.382593505859375,8.833343505859375,7.430893505859375,8.823736505859374Q7.479183505859375,8.814128505859376,7.524683505859375,8.795283505859375Q7.570183505859375,8.776437505859375,7.611123505859375,8.749078505859375Q7.652073505859375,8.721718505859375,7.686893505859375,8.686896505859375Q7.721713505859375,8.652074505859375,7.749073505859375,8.611128505859375Q7.776433505859375,8.570182505859375,7.795283505859375,8.524685505859376Q7.814123505859375,8.479188505859375,7.823733505859375,8.430888605859375Q7.833343505859375,8.382589205859375,7.833343505859375,8.333343505859375Q7.833343505859375,8.284097805859375,7.823733505859375,8.235798405859375Q7.814123505859375,8.187498505859375,7.795283505859375,8.142001505859374Q7.776433505859375,8.096504505859375,7.749073505859375,8.055558505859375Q7.721713505859375,8.014612505859375,7.686893505859375,7.979790505859375Q7.652073505859375,7.944968505859375,7.611123505859375,7.917608505859375Q7.570183505859375,7.890249505859375,7.524683505859375,7.871403505859375Q7.479183505859375,7.852558505859375,7.430893505859375,7.842950505859375Q7.382593505859375,7.833343505859375,7.333343505859375,7.833343505859375Q4.6579635058593745,7.833343505859375,2.758523505859375,9.521733505859375Q0.833343505859375,11.232993505859374,0.833343505859375,13.666673505859375Q0.833343505859375,13.715923505859376,0.8429505058593749,13.764223505859375Q0.8525575058593751,13.812523505859374,0.871403505859375,13.858013505859375Q0.890249505859375,13.903513505859376,0.917608505859375,13.944463505859375Q0.944967505859375,13.985403505859374,0.9797895058593751,14.020233505859375Q1.014611505859375,14.055053505859375,1.055558505859375,14.082413505859375Q1.096504505859375,14.109773505859376,1.1420015058593749,14.128613505859375Q1.187498505859375,14.147463505859374,1.2357983058593751,14.157073505859376Q1.284097805859375,14.166673505859375,1.333343505859375,14.166673505859375Q1.432799705859375,14.166673505859375,1.5246855058593751,14.128613505859375Q1.6165705058593751,14.090553505859376,1.686896505859375,14.020233505859375Q1.757222505859375,13.949903505859375,1.795283505859375,13.858013505859375Q1.833343505859375,13.766133505859376,1.833343505859375,13.666673505859375L1.833343505859375,13.666023505859375Q1.833606505859375,11.681833505859375,3.422883505859375,10.269143505859375Z"
                  fill-rule="evenodd" fill="#2462F9" fill-opacity="1"/>
        </g>
        <g>
            <ellipse cx="11.666656494140625" cy="11.333343505859375" rx="2" ry="2" fill-opacity="0" stroke-opacity="1"
                     stroke="#2462F9" fill="none" stroke-width="1"/>
        </g>
        <g>
            <path d="M14.366503505859376,14.066526494140625L14.366673505859374,14.066656494140625Q14.500013505859375,14.166656494140625,14.666673505859375,14.166656494140625Q14.676283505859375,14.166656494140625,14.685893505859376,14.166286494140625Q14.798783505859376,14.161946494140626,14.898833505859375,14.109486494140626Q14.998893505859375,14.057036494140625,15.066673505859375,13.966656494140626Q15.166673505859375,13.833326494140625,15.166673505859375,13.666656494140625Q15.166673505859375,13.657046494140625,15.166303505859375,13.647443494140624Q15.161963505859376,13.534553494140624,15.109513505859375,13.434496494140625Q15.057053505859376,13.334440494140624,14.966673505859376,13.266656494140625L14.966503505859375,13.266527494140625L13.633397505859374,12.266697494140624L13.633343505859376,12.266656494140625Q13.500010505859375,12.166656494140625,13.333343803392374,12.166656494140625Q13.323733305859376,12.166656494140625,13.314130205859374,12.167025494140624Q13.201240505859374,12.171366494140624,13.101183505859375,12.223822494140625Q13.001127505859374,12.276278494140625,12.933343505859375,12.366656494140624Q12.833343505859375,12.499989494140625,12.833343505859375,12.666656494140625Q12.833343505859375,12.676266554140625,12.833712505859374,12.685869794140626Q12.838053505859374,12.798759494140626,12.890509505859375,12.898816494140625Q12.942965505859375,12.998872494140626,13.033343505859374,13.066656494140625L13.033397505859375,13.066697494140625L14.366503505859376,14.066526494140625Z"
                  fill-rule="evenodd" fill="#2462F9" fill-opacity="1"/>
        </g>
    </g>
</svg>