<svg version="1.1" xmlns:xlink="http://www.w3.org/1999/xlink" width="12px" height="12px" xmlns="http://www.w3.org/2000/svg">
  <g transform="matrix(1 0 0 1 -1204 -91 )">
    <path d="M 11.596153846153847 4.302457466918715  C 11.865384615384617 4.347826086956522  12 4.463768115942029  12 4.650283553875237  C 12 4.761184625078764  11.9375 4.882167611846249  11.8125 5.013232514177694  L 9.194711538461538 7.689981096408317  L 9.814903846153847 11.47069943289225  C 9.81971153846154 11.5059861373661  9.822115384615385 11.556395715185884  9.822115384615385 11.621928166351607  C 9.822115384615385 11.727788279773158  9.796875 11.817265280403277  9.746394230769232 11.890359168241964  C 9.695913461538462 11.963453056080656  9.622596153846155 12  9.526442307692307 12  C 9.435096153846155 12  9.338942307692307 11.969754253308128  9.237980769230768 11.909262759924387  L 6 10.12476370510397  L 2.762019230769231 11.909262759924387  C 2.65625 11.969754253308128  2.5600961538461537 12  2.473557692307692 12  C 2.3725961538461537 12  2.296875 11.963453056080656  2.246394230769231 11.890359168241964  C 2.1959134615384617 11.817265280403277  2.1706730769230766 11.727788279773158  2.1706730769230766 11.621928166351607  C 2.1706730769230766 11.591682419659735  2.1754807692307696 11.541272841839948  2.1850961538461537 11.47069943289225  L 2.8052884615384617 7.689981096408317  L 0.18028846153846154 5.013232514177694  C 0.06009615384615384 4.877126654064272  0 4.7561436672967865  0 4.650283553875237  C 0 4.463768115942029  0.13461538461538458 4.347826086956522  0.40384615384615385 4.302457466918715  L 4.024038461538462 3.75047258979206  L 5.646634615384616 0.3100189035916818  C 5.73798076923077 0.10333963453056016  5.855769230769231 0  6 0  C 6.144230769230768 0  6.262019230769231 0.10333963453056016  6.353365384615385 0.3100189035916818  L 7.975961538461538 3.75047258979206  L 11.596153846153847 4.302457466918715  Z " fill-rule="nonzero" fill="#6300bf" stroke="none" transform="matrix(1 0 0 1 1204 91 )" />
  </g>
</svg>