<svg t="1681281283358" class="icon" viewBox="0 0 1024 1024" version="1.1" xmlns="http://www.w3.org/2000/svg" p-id="2546" width="48" height="48"><path d="M706.1 200.3H317.9c-1.6 0-3.1 0.1-4.6 0.1-1.5 0-3.1-0.1-4.6-0.1-26.3 0-52.6 3.2-77.9 9.6l-0.6 0.2c-12.4 3.5-24.8 7.8-36.7 12.8-37.7 15.8-71.6 38.4-100.6 67.2C63.8 318.9 41 352.4 25 389.8 8.4 428.4 0 469.5 0 511.9v0.2c0 1 0.1 1.9 0.1 2.9 0 4.4 0.1 8.7 0.3 13.1v0.6c2 36.3 10.2 71.7 24.5 105.3 16 37.3 38.8 70.9 67.9 99.7 29.1 28.8 62.9 51.4 100.6 67.1 14.9 6.2 30.4 11.4 46.1 15.2l0.6 0.1c22.4 4.9 45.5 7.4 68.5 7.4 1.5 0 3.1-0.1 4.6-0.1 1.6 0 3.1 0.1 4.6 0.1h388.3c175.3 0 317.9-139.8 317.9-311.7 0-171.6-142.6-311.5-317.9-311.5zM313.2 779C169.5 776.7 52.4 665.4 44.9 526.2v-0.5c-0.2-3.7-0.2-7.3-0.3-11 0-0.9-0.1-1.8-0.1-2.7 0-145.7 120.1-264.5 268.7-267 146.9 2.4 265.6 121.2 265.6 267S460.1 776.6 313.2 779z m392.9 0.1H470.5C562 724.6 623.3 625.2 623.3 512c0-113.2-61.3-212.6-152.8-267.1h235.6c150.7 0 273.3 119.8 273.3 267.1 0.1 147.3-122.5 267.1-273.3 267.1z" fill="" p-id="2547"></path></svg>