<?xml version="1.0" standalone="no"?><!DOCTYPE svg PUBLIC "-//W3C//DTD SVG 1.1//EN" "http://www.w3.org/Graphics/SVG/1.1/DTD/svg11.dtd"><svg t="1714109946788" class="icon" viewBox="0 0 1024 1024" version="1.1" xmlns="http://www.w3.org/2000/svg" p-id="5913" width="16" height="16" xmlns:xlink="http://www.w3.org/1999/xlink"><path d="M512 578.048c-1.536 0-2.816-0.512-3.84-1.792l-110.848-121.856c-1.28-1.536-1.792-3.584-1.024-5.632 0.768-1.792 2.56-3.072 4.608-3.072l221.696 0c2.048 0 3.84 1.28 4.608 3.072 0.768 1.792 0.512 4.096-1.024 5.632l-110.848 121.856C514.816 577.28 513.536 578.048 512 578.048zM622.848 451.072 512 572.928l-110.848-121.856L622.848 451.072M622.848 440.832l-221.696 0c-4.096 0-7.68 2.304-9.472 6.144-1.536 3.584-1.024 7.936 1.792 11.008l110.848 121.856c2.048 2.048 4.608 3.328 7.68 3.328s5.632-1.28 7.68-3.328l110.848-121.856c2.816-3.072 3.328-7.424 1.792-11.008C630.528 443.392 626.944 440.832 622.848 440.832L622.848 440.832z" fill="#515151" p-id="5914"></path></svg>