<svg xmlns="http://www.w3.org/2000/svg" xmlns:xlink="http://www.w3.org/1999/xlink" fill="none" version="1.1" width="16" height="16" viewBox="0 0 16 16"><defs><clipPath id="master_svg0_249_26961"><rect x="0" y="0" width="16" height="16" rx="0"/></clipPath></defs><g clip-path="url(#master_svg0_249_26961)"><g><path d="M1.5,13L1.5,3Q1.5,2.37868,1.9393398,1.9393398Q2.37868,1.5,3,1.5L13,1.5Q13.6213,1.5,14.0607,1.9393398Q14.5,2.378679,14.5,3L14.5,13Q14.5,13.6213,14.0607,14.0607Q13.6213,14.5,13,14.5L3,14.5Q2.378679,14.5,1.9393398,14.0607Q1.5,13.6213,1.5,13ZM2.5,13Q2.5,13.2071,2.646447,13.3536Q2.792894,13.5,3,13.5L13,13.5Q13.2071,13.5,13.3536,13.3536Q13.5,13.2071,13.5,13L13.5,3Q13.5,2.792894,13.3536,2.646447Q13.2071,2.5,13,2.5L3,2.5Q2.792893,2.5,2.646447,2.646447Q2.5,2.792893,2.5,3L2.5,13Z" fill="#2462F9" fill-opacity="1"/></g><g><path d="M3.8333282470703125,7.000013505859375L3.8333282470703125,4.333343505859375Q3.8333282470703125,4.284097805859375,3.8429352470703124,4.235798405859375Q3.8525432470703125,4.187498505859375,3.8713882470703123,4.142001505859375Q3.8902342470703126,4.096504505859375,3.9175932470703123,4.055558505859375Q3.9449532470703126,4.014612505859375,3.9797752470703127,3.979790505859375Q4.014597247070313,3.944968505859375,4.055543247070313,3.917608505859375Q4.096489247070313,3.890249505859375,4.141986247070313,3.8714035058593748Q4.187483247070313,3.852558505859375,4.235783147070313,3.842950505859375Q4.284082547070312,3.833343505859375,4.3333282470703125,3.833343505859375L6.999998247070312,3.833343505859375Q7.0492382470703125,3.833343505859375,7.097538247070313,3.842950505859375Q7.145838247070312,3.852558505859375,7.191338247070313,3.8714035058593748Q7.236838247070312,3.890249505859375,7.277778247070312,3.917608505859375Q7.318728247070313,3.944968505859375,7.353548247070313,3.979790505859375Q7.3883682470703125,4.014612505859375,7.415728247070312,4.055558505859375Q7.443088247070312,4.096504505859375,7.461938247070313,4.142001505859375Q7.480778247070313,4.187498505859375,7.490388247070312,4.235798405859375Q7.499998247070312,4.284097805859375,7.499998247070312,4.333343505859375L7.499998247070312,7.000013505859375Q7.499998247070312,7.049253505859375,7.490388247070312,7.097553505859375Q7.480778247070313,7.145853505859375,7.461938247070313,7.191353505859375Q7.443088247070312,7.236853505859375,7.415728247070312,7.277793505859375Q7.3883682470703125,7.318743505859375,7.353548247070313,7.353563505859375Q7.318728247070313,7.388383505859375,7.277778247070312,7.415743505859375Q7.236838247070312,7.443103505859375,7.191338247070313,7.461953505859375Q7.145838247070312,7.480793505859375,7.097538247070313,7.4904035058593745Q7.0492382470703125,7.500013505859375,6.999998247070312,7.500013505859375L4.3333282470703125,7.500013505859375Q4.284082547070312,7.500013505859375,4.235783147070313,7.4904035058593745Q4.187483247070313,7.480793505859375,4.141986247070313,7.461953505859375Q4.096489247070313,7.443103505859375,4.055543247070313,7.415743505859375Q4.014597247070313,7.388383505859375,3.9797752470703127,7.353563505859375Q3.9449532470703126,7.318743505859375,3.9175932470703123,7.277793505859375Q3.8902342470703126,7.236853505859375,3.8713882470703123,7.191353505859375Q3.8525432470703125,7.145853505859375,3.8429352470703124,7.097553505859375Q3.8333282470703125,7.049253505859375,3.8333282470703125,7.000013505859375ZM4.8333282470703125,4.833343505859375L4.8333282470703125,6.500013505859375L6.499998247070312,6.500013505859375L6.499998247070312,4.833343505859375L4.8333282470703125,4.833343505859375Z" fill="#2462F9" fill-opacity="1"/></g><g><path d="M3.8333282470703125,11.66667L3.8333282470703125,9Q3.8333282470703125,8.9507543,3.8429352470703124,8.9024549Q3.8525432470703125,8.854155,3.8713882470703123,8.808658Q3.8902342470703126,8.763161,3.9175932470703123,8.722215Q3.9449532470703126,8.681269,3.9797752470703127,8.646447Q4.014597247070313,8.611625,4.055543247070313,8.584265Q4.096489247070313,8.556906,4.141986247070313,8.53806Q4.187483247070313,8.519214999999999,4.235783147070313,8.509607Q4.284082547070312,8.5,4.3333282470703125,8.5L6.999998247070312,8.5Q7.0492382470703125,8.5,7.097538247070313,8.509607Q7.145838247070312,8.519214999999999,7.191338247070313,8.53806Q7.236838247070312,8.556906,7.277778247070312,8.584265Q7.318728247070313,8.611625,7.353548247070313,8.646447Q7.3883682470703125,8.681269,7.415728247070312,8.722215Q7.443088247070312,8.763161,7.461938247070313,8.808658Q7.480778247070313,8.854155,7.490388247070312,8.9024549Q7.499998247070312,8.9507543,7.499998247070312,9L7.499998247070312,11.66667Q7.499998247070312,11.715910000000001,7.490388247070312,11.76421Q7.480778247070313,11.81251,7.461938247070313,11.85801Q7.443088247070312,11.90351,7.415728247070312,11.94445Q7.3883682470703125,11.9854,7.353548247070313,12.02022Q7.318728247070313,12.05504,7.277778247070312,12.0824Q7.236838247070312,12.10976,7.191338247070313,12.12861Q7.145838247070312,12.14745,7.097538247070313,12.15706Q7.0492382470703125,12.16667,6.999998247070312,12.16667L4.3333282470703125,12.16667Q4.284082547070312,12.16667,4.235783147070313,12.15706Q4.187483247070313,12.14745,4.141986247070313,12.12861Q4.096489247070313,12.10976,4.055543247070313,12.0824Q4.014597247070313,12.05504,3.9797752470703127,12.02022Q3.9449532470703126,11.9854,3.9175932470703123,11.94445Q3.8902342470703126,11.90351,3.8713882470703123,11.85801Q3.8525432470703125,11.81251,3.8429352470703124,11.76421Q3.8333282470703125,11.715910000000001,3.8333282470703125,11.66667ZM4.8333282470703125,9.5L4.8333282470703125,11.16667L6.499998247070312,11.16667L6.499998247070312,9.5L4.8333282470703125,9.5Z" fill="#2462F9" fill-opacity="1"/></g><g><path d="M9,9.833343505859375L11.66667,9.833343505859375Q11.715910000000001,9.833343505859375,11.76421,9.823736505859374Q11.81251,9.814128505859376,11.85801,9.795283505859375Q11.90351,9.776437505859375,11.94445,9.749078505859375Q11.9854,9.721718505859375,12.02022,9.686896505859375Q12.05504,9.652074505859375,12.0824,9.611128505859375Q12.10976,9.570182505859375,12.12861,9.524685505859376Q12.14745,9.479188505859375,12.15706,9.430888605859375Q12.16667,9.382589205859375,12.16667,9.333343505859375Q12.16667,9.284097805859375,12.15706,9.235798405859375Q12.14745,9.187498505859375,12.12861,9.142001505859374Q12.10976,9.096504505859375,12.0824,9.055558505859375Q12.05504,9.014612505859375,12.02022,8.979790505859375Q11.9854,8.944968505859375,11.94445,8.917608505859375Q11.90351,8.890249505859375,11.85801,8.871403505859375Q11.81251,8.852558505859374,11.76421,8.842950505859376Q11.715910000000001,8.833343505859375,11.66667,8.833343505859375L9,8.833343505859375Q8.9507543,8.833343505859375,8.9024549,8.842950505859376Q8.854155,8.852558505859374,8.808658,8.871403505859375Q8.763161,8.890249505859375,8.722215,8.917608505859375Q8.681269,8.944968505859375,8.646447,8.979790505859375Q8.611625,9.014612505859375,8.584265,9.055558505859375Q8.556906,9.096504505859375,8.53806,9.142001505859374Q8.519214999999999,9.187498505859375,8.509607,9.235798405859375Q8.5,9.284097805859375,8.5,9.333343505859375Q8.5,9.382589205859375,8.509607,9.430888605859375Q8.519214999999999,9.479188505859375,8.53806,9.524685505859376Q8.556906,9.570182505859375,8.584265,9.611128505859375Q8.611625,9.652074505859375,8.646447,9.686896505859375Q8.681269,9.721718505859375,8.722215,9.749078505859375Q8.763161,9.776437505859375,8.808658,9.795283505859375Q8.854155,9.814128505859376,8.9024549,9.823736505859374Q8.9507543,9.833343505859375,9,9.833343505859375Z" fill-rule="evenodd" fill="#2462F9" fill-opacity="1"/></g><g><path d="M9,12.166656494140625L11.66667,12.166656494140625Q11.715910000000001,12.166656494140625,11.76421,12.157049494140624Q11.81251,12.147441494140626,11.85801,12.128596494140625Q11.90351,12.109750494140625,11.94445,12.082391494140625Q11.9854,12.055031494140625,12.02022,12.020209494140625Q12.05504,11.985387494140625,12.0824,11.944441494140625Q12.10976,11.903495494140625,12.12861,11.857998494140626Q12.14745,11.812501494140625,12.15706,11.764201594140625Q12.16667,11.715902194140625,12.16667,11.666656494140625Q12.16667,11.617410794140625,12.15706,11.569111394140625Q12.14745,11.520811494140625,12.12861,11.475314494140624Q12.10976,11.429817494140625,12.0824,11.388871494140625Q12.05504,11.347925494140625,12.02022,11.313103494140625Q11.9854,11.278281494140625,11.94445,11.250921494140625Q11.90351,11.223562494140625,11.85801,11.204716494140625Q11.81251,11.185871494140624,11.76421,11.176263494140626Q11.715910000000001,11.166656494140625,11.66667,11.166656494140625L9,11.166656494140625Q8.9507543,11.166656494140625,8.9024549,11.176263494140626Q8.854155,11.185871494140624,8.808658,11.204716494140625Q8.763161,11.223562494140625,8.722215,11.250921494140625Q8.681269,11.278281494140625,8.646447,11.313103494140625Q8.611625,11.347925494140625,8.584265,11.388871494140625Q8.556906,11.429817494140625,8.53806,11.475314494140624Q8.519214999999999,11.520811494140625,8.509607,11.569111394140625Q8.5,11.617410794140625,8.5,11.666656494140625Q8.5,11.715902194140625,8.509607,11.764201594140625Q8.519214999999999,11.812501494140625,8.53806,11.857998494140626Q8.556906,11.903495494140625,8.584265,11.944441494140625Q8.611625,11.985387494140625,8.646447,12.020209494140625Q8.681269,12.055031494140625,8.722215,12.082391494140625Q8.763161,12.109750494140625,8.808658,12.128596494140625Q8.854155,12.147441494140626,8.9024549,12.157049494140624Q8.9507543,12.166656494140625,9,12.166656494140625Z" fill-rule="evenodd" fill="#2462F9" fill-opacity="1"/></g><g><path d="M9,4.833343505859375L11.66667,4.833343505859375Q11.715910000000001,4.833343505859375,11.76421,4.823736505859375Q11.81251,4.814128505859375,11.85801,4.795283505859375Q11.90351,4.776437505859375,11.94445,4.749078505859375Q11.9854,4.721718505859375,12.02022,4.686896505859375Q12.05504,4.652074505859375,12.0824,4.611128505859375Q12.10976,4.570182505859375,12.12861,4.524685505859375Q12.14745,4.479188505859375,12.15706,4.430888605859375Q12.16667,4.382589205859375,12.16667,4.333343505859375Q12.16667,4.284097805859375,12.15706,4.235798405859375Q12.14745,4.187498505859375,12.12861,4.142001505859375Q12.10976,4.096504505859375,12.0824,4.055558505859375Q12.05504,4.014612505859375,12.02022,3.979790505859375Q11.9854,3.944968505859375,11.94445,3.917608505859375Q11.90351,3.890249505859375,11.85801,3.8714035058593748Q11.81251,3.852558505859375,11.76421,3.842950505859375Q11.715910000000001,3.833343505859375,11.66667,3.833343505859375L9,3.833343505859375Q8.9507543,3.833343505859375,8.9024549,3.842950505859375Q8.854155,3.852558505859375,8.808658,3.8714035058593748Q8.763161,3.890249505859375,8.722215,3.917608505859375Q8.681269,3.944968505859375,8.646447,3.979790505859375Q8.611625,4.014612505859375,8.584265,4.055558505859375Q8.556906,4.096504505859375,8.53806,4.142001505859375Q8.519214999999999,4.187498505859375,8.509607,4.235798405859375Q8.5,4.284097805859375,8.5,4.333343505859375Q8.5,4.382589205859375,8.509607,4.430888605859375Q8.519214999999999,4.479188505859375,8.53806,4.524685505859375Q8.556906,4.570182505859375,8.584265,4.611128505859375Q8.611625,4.652074505859375,8.646447,4.686896505859375Q8.681269,4.721718505859375,8.722215,4.749078505859375Q8.763161,4.776437505859375,8.808658,4.795283505859375Q8.854155,4.814128505859375,8.9024549,4.823736505859375Q8.9507543,4.833343505859375,9,4.833343505859375Z" fill-rule="evenodd" fill="#2462F9" fill-opacity="1"/></g><g><path d="M9,7.166656494140625L11.66667,7.166656494140625Q11.715910000000001,7.166656494140625,11.76421,7.157049494140625Q11.81251,7.147441494140625,11.85801,7.128596494140625Q11.90351,7.109750494140625,11.94445,7.082391494140625Q11.9854,7.055031494140625,12.02022,7.020209494140625Q12.05504,6.985387494140625,12.0824,6.944441494140625Q12.10976,6.903495494140625,12.12861,6.857998494140625Q12.14745,6.812501494140625,12.15706,6.764201594140625Q12.16667,6.715902194140625,12.16667,6.666656494140625Q12.16667,6.617410794140625,12.15706,6.569111394140625Q12.14745,6.520811494140625,12.12861,6.475314494140625Q12.10976,6.429817494140625,12.0824,6.388871494140625Q12.05504,6.347925494140625,12.02022,6.313103494140625Q11.9854,6.278281494140625,11.94445,6.250921494140625Q11.90351,6.223562494140625,11.85801,6.204716494140625Q11.81251,6.185871494140625,11.76421,6.176263494140625Q11.715910000000001,6.166656494140625,11.66667,6.166656494140625L9,6.166656494140625Q8.9507543,6.166656494140625,8.9024549,6.176263494140625Q8.854155,6.185871494140625,8.808658,6.204716494140625Q8.763161,6.223562494140625,8.722215,6.250921494140625Q8.681269,6.278281494140625,8.646447,6.313103494140625Q8.611625,6.347925494140625,8.584265,6.388871494140625Q8.556906,6.429817494140625,8.53806,6.475314494140625Q8.519214999999999,6.520811494140625,8.509607,6.569111394140625Q8.5,6.617410794140625,8.5,6.666656494140625Q8.5,6.715902194140625,8.509607,6.764201594140625Q8.519214999999999,6.812501494140625,8.53806,6.857998494140625Q8.556906,6.903495494140625,8.584265,6.944441494140625Q8.611625,6.985387494140625,8.646447,7.020209494140625Q8.681269,7.055031494140625,8.722215,7.082391494140625Q8.763161,7.109750494140625,8.808658,7.128596494140625Q8.854155,7.147441494140625,8.9024549,7.157049494140625Q8.9507543,7.166656494140625,9,7.166656494140625Z" fill-rule="evenodd" fill="#2462F9" fill-opacity="1"/></g></g></svg>