<?xml version="1.0" standalone="no"?>
<!DOCTYPE svg PUBLIC "-//W3C//DTD SVG 1.1//EN" "http://www.w3.org/Graphics/SVG/1.1/DTD/svg11.dtd" >
<svg xmlns="http://www.w3.org/2000/svg">
  <metadata>Created by iconfont</metadata>
  <defs>
  <font id="element-icons" horiz-adv-x="1024">
    <font-face
      font-family="element-icons"
      font-weight="400"
      font-stretch="normal"
      units-per-em="1024"
      ascent="896"
      descent="-128"
    />
      <missing-glyph />
      
      <glyph glyph-name="chengbentongji" unicode="&#59977;" d="M746.666667 789.333333a170.666667 170.666667 0 0 0 170.666666-170.666666v-469.333334a170.666667 170.666667 0 0 0-170.666666-170.666666h-469.333334a170.666667 170.666667 0 0 0-170.666666 170.666666v469.333334a170.666667 170.666667 0 0 0 170.666666 170.666666h469.333334z m0-64h-469.333334a106.666667 106.666667 0 0 1-106.453333-99.669333L170.666667 618.666667v-469.333334a106.666667 106.666667 0 0 1 99.669333-106.453333L277.333333 42.666667h469.333334a106.666667 106.666667 0 0 1 106.453333 99.669333L853.333333 149.333333v469.333334a106.666667 106.666667 0 0 1-99.669333 106.453333L746.666667 725.333333zM341.333333 373.333333a32 32 0 0 0 31.701334-27.648L373.333333 341.333333v-170.666666a32 32 0 0 0-63.701333-4.352L309.333333 170.666667v170.666666a32 32 0 0 0 32 32z m170.666667 256a32 32 0 0 0 31.701333-27.648L544 597.333333v-426.666666a32 32 0 0 0-63.701333-4.352L480 170.666667V597.333333a32 32 0 0 0 32 32z m170.666667-170.666666a32 32 0 0 0 31.701333-27.648l0.298667-4.352v-256a32 32 0 0 0-63.701334-4.352L650.666667 170.666667v256a32 32 0 0 0 32 32z"  horiz-adv-x="1024" />
      
      <glyph glyph-name="daorubaoxiao" unicode="&#59978;" d="M810.666667 768a170.666667 170.666667 0 0 0 170.666666-170.666667v-128a85.333333 85.333333 0 1 1 0-170.666666v-128a170.666667 170.666667 0 0 0-170.666666-170.666667H213.333333a170.666667 170.666667 0 0 0-170.666666 170.666667v128a85.333333 85.333333 0 1 1 0 170.666666V597.333333a170.666667 170.666667 0 0 0 170.666666 170.666667h597.333334z m0-64H213.333333a106.666667 106.666667 0 0 1-106.453333-99.669333L106.666667 597.333333v-78.421333l4.608-2.261333a149.333333 149.333333 0 0 0 80.512-124.458667L192 384a149.333333 149.333333 0 0 0-80.725333-132.693333l-4.608-2.176V170.666667a106.666667 106.666667 0 0 1 99.669333-106.453334L213.333333 64h597.333334a106.666667 106.666667 0 0 1 106.453333 99.669333L917.333333 170.666667v78.421333l-4.608 2.261333a149.333333 149.333333 0 0 0-80.512 124.458667L832 384a149.333333 149.333333 0 0 0 80.725333 132.693333l4.608 2.261334V597.333333a106.666667 106.666667 0 0 1-99.669333 106.453334L810.666667 704zM341.333333 565.333333m32 0l277.333334 0q32 0 32-32l0 0q0-32-32-32l-277.333334 0q-32 0-32 32l0 0q0 32 32 32ZM341.333333 416m32 0l277.333334 0q32 0 32-32l0 0q0-32-32-32l-277.333334 0q-32 0-32 32l0 0q0 32 32 32ZM341.333333 266.666667m32 0l277.333334 0q32 0 32-32l0 0q0-32-32-32l-277.333334 0q-32 0-32 32l0 0q0 32 32 32Z"  horiz-adv-x="1024" />
      
      <glyph glyph-name="fentanguanli" unicode="&#59979;" d="M512 832c247.424 0 448-200.576 448-448S759.424-64 512-64 64 136.576 64 384 264.576 832 512 832zM512 768a384 384 0 1 1 0-768 384 384 0 0 1 0 768zM405.333333 640a106.666667 106.666667 0 1 0 0-213.333333 106.666667 106.666667 0 0 0 0 213.333333z m0-64a42.666667 42.666667 0 1 1 0-85.333333 42.666667 42.666667 0 0 1 0 85.333333z m256-192a106.666667 106.666667 0 1 0 0-213.333333 106.666667 106.666667 0 0 0 0 213.333333z m0-64a42.666667 42.666667 0 1 1 0-85.333333 42.666667 42.666667 0 0 1 0 85.333333zM330.965333 258.901333l316.8 316.8a32 32 0 0 0 45.226667-45.269333l-316.757333-316.8a32 32 0 0 0-45.226667 45.269333z"  horiz-adv-x="1024" />
      
      <glyph glyph-name="daoruxinchou" unicode="&#59980;" d="M368.64 619.946667a32 32 0 0 0 41.984 2.858666l3.285333-2.858666 98.005334-98.048L610.005333 619.946667a32 32 0 0 0 41.984 2.858666l3.242667-2.858666a32 32 0 0 0 2.901333-41.984l-2.901333-3.242667L512 431.36 368.64 574.72a32 32 0 0 0 0 45.226667zM512 500.906667a32 32 0 0 0 31.658667-27.690667l0.298666-4.352v-298.666667a32 32 0 0 0-63.701333-4.309333l-0.298667 4.309333v298.666667a32 32 0 0 0 32 32zM362.624 469.376m32 0l234.666667 0q32 0 32-32l0 0q0-32-32-32l-234.666667 0q-32 0-32 32l0 0q0 32 32 32ZM362.624 341.376m32 0l234.666667 0q32 0 32-32l0 0q0-32-32-32l-234.666667 0q-32 0-32 32l0 0q0 32 32 32ZM512 832c247.424 0 448-200.576 448-448S759.424-64 512-64 64 136.576 64 384 264.576 832 512 832zM512 768a384 384 0 1 1 0-768 384 384 0 0 1 0 768z"  horiz-adv-x="1024" />
      
      <glyph glyph-name="xiangmulixiang" unicode="&#59981;" d="M298.666667 426.666667m32 0l362.666666 0q32 0 32-32l0 0q0-32-32-32l-362.666666 0q-32 0-32 32l0 0q0 32 32 32ZM298.666667 213.333333m32 0l234.666666 0q32 0 32-32l0 0q0-32-32-32l-234.666666 0q-32 0-32 32l0 0q0 32 32 32ZM554.666667 810.666667v-196.693334a42.666667 42.666667 0 0 0-56.234667-40.448l-57.6 19.285334a42.666667 42.666667 0 0 1-27.008 0.042666l-59.050667-19.584A42.666667 42.666667 0 0 0 298.666667 613.802667V810.666667h256z m-64-64h-128v-103.338667l31.018666 10.24a106.666667 106.666667 0 0 0 59.178667 2.346667l8.277333-2.432 29.525334-9.856V746.666667zM725.333333 810.666667a170.666667 170.666667 0 0 0 170.666667-170.666667v-512a170.666667 170.666667 0 0 0-170.666667-170.666667H298.666667a170.666667 170.666667 0 0 0-170.666667 170.666667V640a170.666667 170.666667 0 0 0 170.666667 170.666667h426.666666z m0-64H298.666667a106.666667 106.666667 0 0 1-106.453334-99.669334L192 640v-512a106.666667 106.666667 0 0 1 99.669333-106.453333L298.666667 21.333333h426.666666a106.666667 106.666667 0 0 1 106.453334 99.669334L832 128V640a106.666667 106.666667 0 0 1-99.669333 106.453333L725.333333 746.666667z"  horiz-adv-x="1024" />
      
      <glyph glyph-name="xiangmuguanli" unicode="&#59982;" d="M768 640a170.666667 170.666667 0 0 0 170.666667-170.666667v-341.333333a170.666667 170.666667 0 0 0-170.666667-170.666667H256a170.666667 170.666667 0 0 0-170.666667 170.666667V640h682.666667zM149.333333 128a106.666667 106.666667 0 0 1 99.669334-106.453333L256 21.333333h512a106.666667 106.666667 0 0 1 106.453333 99.669334L874.666667 128v341.333333a106.666667 106.666667 0 0 1-99.669334 106.453334L768 576H149.333333V128zM384 426.666667m32 0l320 0q32 0 32-32l0 0q0-32-32-32l-320 0q-32 0-32 32l0 0q0 32 32 32ZM288 394.666667m-42.666667 0a42.666667 42.666667 0 1 1 85.333334 0 42.666667 42.666667 0 1 1-85.333334 0ZM384 256m32 0l192 0q32 0 32-32l0 0q0-32-32-32l-192 0q-32 0-32 32l0 0q0 32 32 32ZM288 224m-42.666667 0a42.666667 42.666667 0 1 1 85.333334 0 42.666667 42.666667 0 1 1-85.333334 0ZM426.624 789.205333a170.666667 170.666667 0 0 0 170.666667-170.666666v-42.666667h-512v128a85.333333 85.333333 0 0 0 85.333333 85.333333h256z m0-64h-256a21.333333 21.333333 0 0 1-20.992-17.493333l-0.341333-3.84-0.042667-63.957333h381.866667l-1.322667 5.888a106.752 106.752 0 0 1-96.170667 79.189333L426.666667 725.205333z"  horiz-adv-x="1024" />
      
      <glyph glyph-name="xiangmushouru" unicode="&#59983;" d="M768 640a170.666667 170.666667 0 0 0 170.666667-170.666667v-341.333333a170.666667 170.666667 0 0 0-170.666667-170.666667H256a170.666667 170.666667 0 0 0-170.666667 170.666667v341.333333a170.666667 170.666667 0 0 0 170.666667 170.666667h512z m0-64H256a106.666667 106.666667 0 0 1-106.453333-99.669333L149.333333 469.333333v-341.333333a106.666667 106.666667 0 0 1 99.669334-106.453333L256 21.333333h512a106.666667 106.666667 0 0 1 106.453333 99.669334L874.666667 128v341.333333a106.666667 106.666667 0 0 1-99.669334 106.453334L768 576zM203.093333 631.765333l413.056 163.626667c75.776 30.592 162.133333-7.296 197.461334-83.456l3.328-7.765333 39.338666-95.445334a32 32 0 0 0-57.258666-28.288l-1.92 3.882667-39.424 95.701333c-19.157333 47.36-68.394667 71.893333-111.872 58.026667l-5.888-2.090667-413.226667-163.712a32 32 0 0 0-27.52 57.642667l3.925333 1.877333zM938.666667 426.666667v-256h-213.333334a128 128 0 0 0 0 256h213.333334z m-64-192v128H725.333333a64 64 0 0 1-63.701333-57.856L661.333333 298.666667a64 64 0 0 1 57.856-63.701334L725.333333 234.666667h149.333334zM725.333333 298.666667m-42.666666 0a42.666667 42.666667 0 1 1 85.333333 0 42.666667 42.666667 0 1 1-85.333333 0Z"  horiz-adv-x="1024" />
      
      <glyph glyph-name="qitachengben1" unicode="&#59985;" d="M904.789333 572.672l0.213334-9.002667v-444.672a191.786667 191.786667 0 0 0-182.485334-191.786666l-9.045333-0.213334H310.528a191.744 191.744 0 0 0-191.317333 182.997334l-0.213334 9.002666V563.669333a191.829333 191.829333 0 0 0 169.813334 190.762667l-11.136-33.578667a53.333333 53.333333 0 0 1-1.024-30.336A131.157333 131.157333 0 0 1 179.882667 571.306667l-0.213334-7.68v-444.672c0-69.973333 54.485333-127.146667 123.178667-131.114667l7.68-0.213333h402.944a131.072 131.072 0 0 1 130.645333 123.648l0.213334 7.68V563.669333a131.328 131.328 0 0 1-96.981334 126.890667c2.56 9.642667 2.389333 20.138667-1.024 30.293333l-11.178666 33.578667a191.829333 191.829333 0 0 0 169.642666-181.76zM621.141333 842.666667H402.858667a117.333333 117.333333 0 0 1-111.36-80.213334l-13.824-41.6A53.333333 53.333333 0 0 1 328.277333 650.666667h367.445334a53.333333 53.333333 0 0 1 50.602666 70.186666l-13.866666 41.6a117.333333 117.333333 0 0 1-111.317334 80.213334z m0-64l5.717334-0.298667c20.565333-2.218667 38.229333-16.213333 44.885333-36.181333l9.173333-27.52H343.04l9.216 27.52a53.333333 53.333333 0 0 0 50.602667 36.48h218.282666zM368.64 577.28a32 32 0 0 0 41.984 2.858667l3.285333-2.858667 98.005334-98.048L610.005333 577.28a32 32 0 0 0 41.984 2.858667l3.242667-2.858667a32 32 0 0 0 2.901333-41.984l-2.901333-3.242667L512 388.693333 368.64 532.053333a32 32 0 0 0 0 45.226667zM512 458.24a32 32 0 0 0 31.658667-27.690667l0.298666-4.352v-298.666666a32 32 0 0 0-63.701333-4.309334l-0.298667 4.309334v298.666666a32 32 0 0 0 32 32zM362.624 426.709333m32 0l234.666667 0q32 0 32-32l0 0q0-32-32-32l-234.666667 0q-32 0-32 32l0 0q0 32 32 32ZM362.624 298.709333m32 0l234.666667 0q32 0 32-32l0 0q0-32-32-32l-234.666667 0q-32 0-32 32l0 0q0 32 32 32Z"  horiz-adv-x="1024" />
      
      <glyph glyph-name="anniutubiao-bianji" unicode="&#59986;" d="M475.514413 390.401247m22.627417 22.627417l407.293506 407.293506q22.627417 22.627417 45.254834 0l0 0q22.627417-22.627417 0-45.254834l-407.293506-407.293506q-22.627417-22.627417-45.254834 0l0 0q-22.627417 22.627417 0 45.254834ZM640.832 864a32 32 0 0 0 5.76-63.488L640.832 800H256a160 160 0 0 1-159.68-149.504L96 640v-512a160 160 0 0 1 149.504-159.68L256-32h512a160 160 0 0 1 159.68 149.504L928 128V507.776a32 32 0 0 0 63.488 5.76l0.512-5.76V128a224 224 0 0 0-211.712-223.68L768-96h-512a224 224 0 0 0-223.68 211.712L32 128v512A224 224 0 0 0 243.712 863.68L256 864h384.832z"  horiz-adv-x="1024" />
      
      <glyph glyph-name="anniutubiao-zhongzhi" unicode="&#59984;" d="M509.696 834.304a448 448 0 1 0-448-448 32 32 0 0 0 64 0A384 384 0 1 1 304.512 711.04a32 32 0 0 0-34.24 54.08A446.016 446.016 0 0 0 509.696 834.304zM236.608 842.88a32 32 0 0 0 31.424-26.24l0.576-5.76-0.064-96h96a32 32 0 0 0 31.488-26.24l0.576-5.76a32 32 0 0 0-26.24-31.488l-5.76-0.512h-128a32 32 0 0 0-31.488 26.24l-0.512 5.76v128a32 32 0 0 0 32 32z"  horiz-adv-x="1024" />
      
      <glyph glyph-name="anniutubiao-daochu" unicode="&#59988;" d="M480 224m0 32l0 448q0 32 32 32l0 0q32 0 32-32l0-448q0-32-32-32l0 0q-32 0-32 32ZM715.648 598.656a32 32 0 0 0-40.832-48.96l-4.48 3.712-158.336 158.4-158.4-158.4a32 32 0 0 0-40.832-3.712l-4.416 3.712a32 32 0 0 0-3.712 40.832l3.712 4.48L489.344 779.648A32 32 0 0 0 530.176 783.36l4.48-3.648 180.992-181.056zM960 416a32 32 0 0 0 31.488-26.24L992 384v-256a224 224 0 0 0-211.712-223.68L768-96H256a224 224 0 0 0-223.68 211.712L32 128V384a32 32 0 0 0 63.488 5.76L96 384v-256a160 160 0 0 1 149.504-159.68L256-32h512a160 160 0 0 1 159.68 149.504L928 128V384a32 32 0 0 0 32 32z"  horiz-adv-x="1024" />
      
      <glyph glyph-name="anniutubiao-daoru1" unicode="&#59991;" d="M530.176 242.944l4.48 3.712 180.992 180.992a32 32 0 0 1-40.832 48.96l-4.48-3.712L544 346.496V770.304a32 32 0 1 1-64 0v-423.808L353.6 472.896a32 32 0 0 1-40.832 3.712l-4.416-3.712a32 32 0 0 1-3.712-40.832l3.712-4.416 180.992-180.992a32 32 0 0 1 40.832-3.712zM768-96l12.288 0.32A224 224 0 0 1 992 128V384l-0.512 5.76A32 32 0 0 1 928 384v-256l-0.32-10.496A160 160 0 0 0 768-32H256l-10.496 0.32A160 160 0 0 0 96 128V384l-0.512 5.76A32 32 0 0 1 32 384v-256l0.32-12.288A224 224 0 0 1 256-96h512z"  horiz-adv-x="1024" />
      
      <glyph glyph-name="shangjiantou" unicode="&#59987;" d="M251.52 254.08a48 48 0 0 1 62.976-4.352l4.928 4.352 192.32 192.32 192.32-192.32a48 48 0 0 1 62.976-4.352l4.928 4.352a48 48 0 0 1 4.288 62.912l-4.288 4.928-226.304 226.304a48 48 0 0 1-62.912 4.288l-4.928-4.288L251.52 321.92a48 48 0 0 1 0-67.84z"  horiz-adv-x="1024" />
      
      <glyph glyph-name="gouxuan" unicode="&#59992;" d="M130.935467 417.314133a51.2 51.2 0 0 0 67.1744 4.573867l5.188266-4.573867 205.824-205.824 347.477334 347.477334a51.2 51.2 0 0 0 67.1744 4.573866l5.256533-4.573866a51.2 51.2 0 0 0 4.573867-67.1744l-4.573867-5.256534-383.658667-383.658666a51.2 51.2 0 0 0-67.1744-4.573867l-5.256533 4.573867L130.935467 344.951467a51.2 51.2 0 0 0 0 72.430933z"  horiz-adv-x="1024" />
      
      <glyph glyph-name="guishuxiangmu" unicode="&#59993;" d="M512 896a224 224 0 0 0 31.808-445.76c0.192-0.64 0.192-1.408 0.192-2.24v-64H704a160 160 0 0 0 159.68-149.504l0.32-10.496v-35.2a160 160 0 1 0-64 0v35.2a96 96 0 0 1-86.784 95.552L704 320H320a96 96 0 0 1-95.552-86.784L224 224v-35.2a160 160 0 1 0-64 0v35.2a160 160 0 0 0 149.504 159.68L320 384h160V448l0.192 2.24A224 224 0 0 0 512 896zM192 128a96 96 0 1 1 0-192 96 96 0 0 1 0 192z m640 0a96 96 0 1 1 0-192 96 96 0 0 1 0 192zM512 832a160 160 0 1 1 0-320 160 160 0 0 1 0 320z"  horiz-adv-x="1024" />
      
      <glyph glyph-name="shijian" unicode="&#59994;" d="M512 896a512 512 0 1 0 0-1024A512 512 0 0 0 512 896z m0-73.142857a438.857143 438.857143 0 1 1 0-877.714286A438.857143 438.857143 0 0 1 512 822.857143zM438.857143 603.428571m36.571428 0l0 0q36.571429 0 36.571429-36.571428l0-292.571429q0-36.571429-36.571429-36.571428l0 0q-36.571429 0-36.571428 36.571428l0 292.571429q0 36.571429 36.571428 36.571428ZM438.857143 310.857143m36.571428 0l219.428572 0q36.571429 0 36.571428-36.571429l0 0q0-36.571429-36.571428-36.571428l-219.428572 0q-36.571429 0-36.571428 36.571428l0 0q0 36.571429 36.571428 36.571429Z"  horiz-adv-x="1024" />
      
      <glyph glyph-name="xiajiantou" unicode="&#59995;" d="M251.52 513.92a48 48 0 0 0 62.976 4.352l4.928-4.352 192.32-192.32 192.32 192.32a48 48 0 0 0 62.976 4.352l4.928-4.352a48 48 0 0 0 4.288-62.912l-4.288-4.928-226.304-226.304a48 48 0 0 0-62.912-4.288l-4.928 4.288L251.52 446.08a48 48 0 0 0 0 67.84z"  horiz-adv-x="1024" />
      
      <glyph glyph-name="xiangqing" unicode="&#59997;" d="M874.24 470.016a85.76 85.76 0 1 0 0-171.52 85.76 85.76 0 0 0 0 171.52z m-362.24 0a85.76 85.76 0 1 0 0-171.52 85.76 85.76 0 0 0 0 171.52z m-362.24 0a85.76 85.76 0 1 0 0-171.52 85.76 85.76 0 0 0 0 171.52z"  horiz-adv-x="1024" />
      
      <glyph glyph-name="fentanbianji" unicode="&#59998;" d="M401.472 96.64c-19.2-19.2-45.632-29.44-72.768-28.032l-114.944 5.952a64 64 0 0 0-60.608 60.608L147.2 250.048a96 96 0 0 0 28.032 72.832L661.76 809.408a96 96 0 0 0 135.744 0l90.496-90.496a96 96 0 0 0 0-135.744z m350.912 441.28l90.368 90.496a32 32 0 0 1 0 45.248l-90.496 90.496a32 32 0 0 1-45.248 0L616.576 673.728l135.808-135.744zM356.224 141.888l350.848 350.72-135.68 135.808L220.416 277.568a32 32 0 0 1-9.152-18.88l-0.192-5.376 5.888-114.944 114.944-5.888a32 32 0 0 1 24.32 9.344zM119.296-23.296m32 0l768 0q32 0 32-32l0 0q0-32-32-32l-768 0q-32 0-32 32l0 0q0 32 32 32Z"  horiz-adv-x="1024" />
      
      <glyph glyph-name="sousuo" unicode="&#59999;" d="M796.032 144.96l124.928-124.992c6.016-6.656 9.024-14.144 9.024-22.464 0-8.32-3.2-15.68-9.536-22.016a30.08 30.08 0 0 0-21.952-9.536 32.96 32.96 0 0 0-22.528 9.024l-124.992 124.992c-88.64-72.64-187.008-105.792-295.04-99.456-107.968 6.336-201.6 50.496-280.96 132.48C98.944 219.008 61.952 316.032 64 424c1.92 108.032 42.624 203.328 121.984 286.016C268.672 789.376 363.968 830.016 472 832.064c108.032 1.92 204.992-35.008 291.008-111.04 81.984-79.36 126.144-172.992 132.48-280.96 6.4-108.032-26.816-206.336-99.456-295.04zM480 64c100.032 2.688 183.04 36.992 248.96 103.04 65.984 65.92 100.352 148.992 103.04 248.96-2.688 100.032-36.992 183.04-103.04 248.96C663.04 730.944 580.032 765.312 480 768c-100.032-2.688-183.04-36.992-248.96-103.04C165.056 599.04 130.688 515.968 128 416c2.688-100.032 36.992-183.04 103.04-248.96C296.96 101.056 380.032 66.688 480 64z"  horiz-adv-x="1024" />
      
      <glyph glyph-name="icon_cancel" unicode="&#60000;" d="M739.157333 554.382222l-56.775111 56.775111L512 440.775111 341.617778 611.214222l-56.775111-56.775111L455.224889 384l-170.439111-170.382222 56.832-56.775111L512 327.224889l170.382222-170.382222 56.775111 56.775111L568.775111 384l170.382222 170.382222zM512-128A512 512 0 1 0 512 896a512 512 0 0 0 0-1024z"  horiz-adv-x="1024" />
      
      <glyph glyph-name="youjiantou" unicode="&#60001;" d="M382.08 121.472a48 48 0 0 0-4.352 62.976l4.288 4.864 192.32 192.32L382.08 574.08a48 48 0 0 0-4.288 62.976l4.288 4.928a48 48 0 0 0 62.976 4.288l4.928-4.288 226.304-226.304a48 48 0 0 0 4.288-62.976l-4.288-4.928-226.304-226.24a48 48 0 0 0-67.84 0z"  horiz-adv-x="1024" />
      
      <glyph glyph-name="icon_save" unicode="&#60002;" d="M765.838222 608.369778l-346.737778-346.794667-160.995555 160.881778-60.302222-60.302222 181.020444-181.020445 40.277333-40.220444 407.096889 407.096889-60.302222 60.359111zM512-128A512 512 0 1 0 512 896a512 512 0 0 0 0-1024z"  horiz-adv-x="1024" />
      
      <glyph glyph-name="guanbi" unicode="&#60003;" d="M896 690.624L818.624 768 512 461.376 205.376 768 128 690.624 434.624 384 128 77.376 205.376 0 512 306.624 818.624 0 896 77.376 589.376 384z"  horiz-adv-x="1024" />
      
      <glyph glyph-name="tishi" unicode="&#60004;" d="M512.832 864h-1.664C376.448 860.48 263.04 813.376 172.8 723.2 82.56 632.96 35.52 519.488 32 384.768c3.456-136.384 50.56-249.728 140.8-339.968 90.24-90.24 203.52-137.344 338.304-140.8 136.384 3.456 249.728 50.56 339.968 140.8 90.24 90.24 137.344 203.52 140.8 338.304-3.456 136.384-50.56 249.728-140.8 339.968C760.96 813.44 647.68 860.48 512.832 864zM492.16 799.104L512 800h-0.832c118.592-3.136 216.32-43.712 294.72-122.112 78.4-78.464 119.04-176.128 122.112-294.72-3.136-116.928-43.712-214.592-122.112-293.056-78.464-78.4-176.128-119.04-294.72-122.112-116.928 3.136-214.592 43.712-293.056 122.112C139.712 168.576 99.072 266.24 96 384.832c3.136 116.928 43.712 214.592 122.112 293.056C291.904 751.68 382.784 792 492.16 799.104zM579.008 556.992a61.44 61.44 0 0 1 43.008 15.488c11.328 10.304 17.024 24.128 17.024 41.472s-5.696 31.232-17.024 41.536a60.672 60.672 0 0 1-42.496 15.488 60.672 60.672 0 0 1-42.496-15.488c-11.328-10.304-16.96-24.192-16.96-41.536 0-17.28 5.632-31.168 16.96-41.472a60.032 60.032 0 0 1 41.984-15.488z m12.032-360c0 4.032 0.32 9.344 0.96 16 0.64 6.656 0.64 12.992 0 19.008l-52.992-60.992c-5.312-6.016-10.88-10.688-16.512-14.016-5.696-3.328-10.496-4.352-14.464-3.008-6.016 2.688-8.704 7.36-8 14.016l88 276.992c3.264 18.688 0.32 34.688-9.024 48-9.344 13.312-24.32 21.312-44.992 24-23.36-0.64-48.832-10.496-76.48-29.504-27.712-19.008-51.84-43.2-72.512-72.512v-14.976c-0.64-6.72-0.64-13.056 0-19.008l52.928 60.992c5.376 5.952 10.88 10.624 16.512 14.016 5.76 3.328 10.24 4.288 13.568 2.944 6.656-3.264 8.96-8.64 6.976-16l-87.04-275.968a49.664 49.664 0 0 1 7.04-44.48c9.344-13.056 25.664-21.888 49.024-26.56 33.28 0.64 61.312 10.368 83.968 29.056a321.92 321.92 0 0 1 63.04 72z"  horiz-adv-x="1024" />
      
      <glyph glyph-name="riqi" unicode="&#60005;" d="M150.588235 504.470588v-481.882353h722.82353v662.588236h-120.470589V655.058824a29.334588 29.334588 0 0 0-8.432941-21.684706 29.334588 29.334588 0 0 0-21.684706-8.432942 29.334588 29.334588 0 0 0-21.684705 8.432942A29.334588 29.334588 0 0 0 692.705882 655.058824v30.117647H331.294118V655.058824a29.334588 29.334588 0 0 0-8.432942-21.684706 29.334588 29.334588 0 0 0-21.684705-8.432942 29.334588 29.334588 0 0 0-21.684706 8.432942A29.334588 29.334588 0 0 0 271.058824 655.058824v30.117647H150.588235v-120.470589h722.82353v-60.235294H150.588235z m180.705883 240.941177h361.411764V775.529412c0 8.794353 2.831059 16.022588 8.432942 21.684706a29.334588 29.334588 0 0 0 21.684705 8.432941c8.794353 0 16.022588-2.831059 21.684706-8.432941 5.601882-5.662118 8.432941-12.890353 8.432941-21.684706v-30.117647h150.588236c8.794353 0 16.022588-2.831059 21.684706-8.432941 5.601882-5.662118 8.432941-12.890353 8.432941-21.684706v-722.82353a29.334588 29.334588 0 0 0-8.432941-21.684706 29.334588 29.334588 0 0 0-21.684706-8.432941h-783.058824a29.334588 29.334588 0 0 0-21.684706 8.432941A29.334588 29.334588 0 0 0 90.352941-7.529412V715.294118c0 8.794353 2.831059 16.022588 8.432941 21.684706a29.334588 29.334588 0 0 0 21.684706 8.432941H271.058824V775.529412c0 8.794353 2.831059 16.022588 8.432941 21.684706a29.334588 29.334588 0 0 0 21.684706 8.432941c8.794353 0 16.022588-2.831059 21.684705-8.432941 5.601882-5.662118 8.432941-12.890353 8.432942-21.684706v-30.117647z m-30.117647-361.411765h60.235294c8.794353 0 16.022588-2.831059 21.684706-8.432941 5.601882-5.662118 8.432941-12.890353 8.432941-21.684706a29.334588 29.334588 0 0 0-8.432941-21.684706 29.334588 29.334588 0 0 0-21.684706-8.432941h-60.235294a29.334588 29.334588 0 0 0-21.684706 8.432941A29.334588 29.334588 0 0 0 271.058824 353.882353c0 8.794353 2.831059 16.022588 8.432941 21.684706a29.334588 29.334588 0 0 0 21.684706 8.432941z m0-180.705882h60.235294c8.794353 0 16.022588-2.831059 21.684706-8.432942 5.601882-5.662118 8.432941-12.890353 8.432941-21.684705a29.334588 29.334588 0 0 0-8.432941-21.684706 29.334588 29.334588 0 0 0-21.684706-8.432941h-60.235294a29.334588 29.334588 0 0 0-21.684706 8.432941A29.334588 29.334588 0 0 0 271.058824 173.176471c0 8.794353 2.831059 16.022588 8.432941 21.684705a29.334588 29.334588 0 0 0 21.684706 8.432942z m180.705882 180.705882h60.235294c8.794353 0 16.022588-2.831059 21.684706-8.432941 5.601882-5.662118 8.432941-12.890353 8.432941-21.684706a29.334588 29.334588 0 0 0-8.432941-21.684706 29.334588 29.334588 0 0 0-21.684706-8.432941h-60.235294a29.334588 29.334588 0 0 0-21.684706 8.432941A29.334588 29.334588 0 0 0 451.764706 353.882353c0 8.794353 2.831059 16.022588 8.432941 21.684706a29.334588 29.334588 0 0 0 21.684706 8.432941z m0-180.705882h60.235294c8.794353 0 16.022588-2.831059 21.684706-8.432942 5.601882-5.662118 8.432941-12.890353 8.432941-21.684705a29.334588 29.334588 0 0 0-8.432941-21.684706 29.334588 29.334588 0 0 0-21.684706-8.432941h-60.235294a29.334588 29.334588 0 0 0-21.684706 8.432941A29.334588 29.334588 0 0 0 451.764706 173.176471c0 8.794353 2.831059 16.022588 8.432941 21.684705a29.334588 29.334588 0 0 0 21.684706 8.432942z m180.705882 180.705882h60.235294c8.794353 0 16.022588-2.831059 21.684706-8.432941 5.601882-5.662118 8.432941-12.890353 8.432941-21.684706a29.334588 29.334588 0 0 0-8.432941-21.684706 29.334588 29.334588 0 0 0-21.684706-8.432941h-60.235294a29.334588 29.334588 0 0 0-21.684706 8.432941A29.334588 29.334588 0 0 0 632.470588 353.882353c0 8.794353 2.831059 16.022588 8.432941 21.684706a29.334588 29.334588 0 0 0 21.684706 8.432941z m0-180.705882h60.235294c8.794353 0 16.022588-2.831059 21.684706-8.432942 5.601882-5.662118 8.432941-12.890353 8.432941-21.684705a29.334588 29.334588 0 0 0-8.432941-21.684706 29.334588 29.334588 0 0 0-21.684706-8.432941h-60.235294a29.334588 29.334588 0 0 0-21.684706 8.432941A29.334588 29.334588 0 0 0 632.470588 173.176471c0 8.794353 2.831059 16.022588 8.432941 21.684705a29.334588 29.334588 0 0 0 21.684706 8.432942z"  horiz-adv-x="1024" />
      
      <glyph glyph-name="tianjia" unicode="&#60006;" d="M512 832a448 448 0 1 0 0-896A448 448 0 0 0 512 832z m0-64a384 384 0 1 1 0-768A384 384 0 0 1 512 768zM256 416m32 0l448 0q32 0 32-32l0 0q0-32-32-32l-448 0q-32 0-32 32l0 0q0 32 32 32ZM480 128m0 32l0 448q0 32 32 32l0 0q32 0 32-32l0-448q0-32-32-32l0 0q-32 0-32 32Z"  horiz-adv-x="1024" />
      
      <glyph glyph-name="zuojiantou" unicode="&#60007;" d="M641.92 121.472a48 48 0 0 1 4.352 62.976l-4.352 4.928-192.256 192.32 192.256 192.32a48 48 0 0 1 4.352 62.976l-4.352 4.928a48 48 0 0 1-62.912 4.288l-4.928-4.288-226.304-226.304a48 48 0 0 1-4.288-62.912l4.288-4.928 226.304-226.304a48 48 0 0 1 67.84 0z"  horiz-adv-x="1024" />
      
      <glyph glyph-name="xiangguanxiangmu" unicode="&#60008;" d="M628.565333 23.438222m28.444445 0l281.656889 0q28.444444 0 28.444444-28.444444l0 0q0-28.444444-28.444444-28.444445l-281.656889 0q-28.444444 0-28.444445 28.444445l0 0q0 28.444444 28.444445 28.444444ZM741.432889 194.104889m28.444444 0l168.789334 0q28.444444 0 28.444444-28.444445l0 0q0-28.444444-28.444444-28.444444l-168.789334 0q-28.444444 0-28.444444 28.444444l0 0q0 28.444444 28.444444 28.444445ZM854.243556 364.771556m28.444444 0l55.978667 0q28.444444 0 28.444444-28.444445l0 0q0-28.444444-28.444444-28.444444l-55.978667 0q-28.444444 0-28.444444 28.444444l0 0q0 28.444444 28.444444 28.444445ZM554.496 708.380444c77.255111 77.255111 202.865778 76.8 280.576-0.967111 75.150222-75.093333 78.165333-195.015111 8.476444-272.725333l-7.452444-7.850667-117.191111-117.191111a28.444444 28.444444 0 0 0-43.463111 36.352l3.299555 3.925334L795.875556 467.057778c54.954667 54.954667 54.613333 144.554667-1.024 200.135111a141.653333 141.653333 0 0 1-193.422223 7.338667l-6.712889-6.371556-118.158222-118.158222a28.444444 28.444444 0 0 0-43.52 36.295111l3.299556 3.982222 118.158222 118.101333zM277.617778 431.502222a28.444444 28.444444 0 0 0 43.52-36.295111l-3.299556-3.925333-122.083555-122.083556c-54.954667-54.954667-54.613333-144.554667 0.967111-200.135111a141.653333 141.653333 0 0 1 193.422222-7.338667l6.712889 6.314667L518.257778 189.44a28.444444 28.444444 0 0 0 43.52-36.295111l-3.299556-3.925333-121.344-121.344c-77.198222-77.255111-202.865778-76.743111-280.576 1.024-75.093333 75.093333-78.108444 195.015111-8.476444 272.725333l7.509333 7.850667L277.617778 431.502222z m297.642666 56.32a28.444444 28.444444 0 0 0 40.220445-40.220444l-199.111111-199.168a28.444444 28.444444 0 1 0-40.277334 40.220444l199.168 199.111111z"  horiz-adv-x="1024" />
      
      <glyph glyph-name="shanchu" unicode="&#59996;" d="M576 832a64 64 0 0 0 64-64v-64h288a32 32 0 1 0 0-64H832v-576a128 128 0 0 0-128-128H320a128 128 0 0 0-128 128V640H96a32 32 0 0 0 0 64H384V768a64 64 0 0 0 64 64h128z m192-192H256v-576a64 64 0 0 1 56.512-63.552L320 0h384a64 64 0 0 1 63.552 56.512L768 64V640zM416 512a32 32 0 0 0 32-32v-320a32 32 0 1 0-64 0v320a32 32 0 0 0 32 32z m192 0a32 32 0 0 0 32-32v-320a32 32 0 1 0-64 0v320a32 32 0 0 0 32 32zM576 768H448v-64h128V768z"  horiz-adv-x="1024" />
      
      <glyph glyph-name="caozuoshuoming" unicode="&#60009;" d="M621.184 842.688c47.104 0 89.344-28.16 107.712-70.912l3.584-9.344 2.112-6.272a193.536 193.536 0 0 0 171.776-181.12l0.32-11.392v-444.608a193.472 193.472 0 0 0-181.824-193.408l-11.392-0.32H310.528a193.408 193.408 0 0 0-192.896 182.336l-0.32 11.392V563.648a193.536 193.536 0 0 0 172.096 192.512l2.112 6.272A117.312 117.312 0 0 0 392.832 842.24l9.984 0.448h218.368z m125.76-153.728l-2.176-5.952a53.184 53.184 0 0 0-43.328-32l-5.76-0.32H328.32a53.376 53.376 0 0 0-51.2 38.08A129.28 129.28 0 0 1 181.76 573.312l-0.384-9.664v-444.608c0-68.416 52.736-124.416 119.552-129.344l9.6-0.384h403.008a129.408 129.408 0 0 1 128.832 120l0.384 9.728V563.648c0 60.032-40.64 110.464-95.744 125.312zM487.68 170.496a32 32 0 1 0 0-64h-140.8a32 32 0 1 0 0 64h140.8z m102.4 179.392a32 32 0 0 0 0-64h-243.2a32 32 0 1 0 0 64h243.2z m102.4 179.2a32 32 0 1 0 0-64h-345.6a32 32 0 1 0 0 64h345.6z m-71.296 249.6H402.816a53.312 53.312 0 0 1-47.68-29.504l-2.88-7.04-9.216-27.456h337.856l-9.152 27.52a53.312 53.312 0 0 1-35.776 34.368l-7.232 1.536-7.552 0.576z"  horiz-adv-x="1024" />
      
      <glyph glyph-name="anniutubiao-tijiao" unicode="&#59989;" d="M768 896a192 192 0 0 0 192-192v-640a192 192 0 0 0-192-192H256a192 192 0 0 0-192 192V704a192 192 0 0 0 192 192h512z m0-64H256a128 128 0 0 1-127.68-118.4L128 704v-640a128 128 0 0 1 118.4-127.68L256-64h512a128 128 0 0 1 127.68 118.4L896 64V704a128 128 0 0 1-118.4 127.68L768 832zM320 704m32 0l320 0q32 0 32-32l0 0q0-32-32-32l-320 0q-32 0-32 32l0 0q0 32 32 32ZM480 96m0 32l0 320q0 32 32 32l0 0q32 0 32-32l0-320q0-32-32-32l0 0q-32 0-32 32ZM715.648 342.656a32 32 0 0 0-40.832-48.96l-4.48 3.648L512 455.744 353.6 297.344a32 32 0 0 0-40.832-3.648l-4.416 3.648a32 32 0 0 0-3.712 40.832l3.712 4.48 180.992 180.992a32 32 0 0 0 40.832 3.712l4.48-3.712 180.992-180.992z"  horiz-adv-x="1024" />
      
    </font>
</defs>
</svg>
