<?xml version="1.0" encoding="utf-8"?>
<svg version="1.1" xmlns:xlink="http://www.w3.org/1999/xlink" width="70px" height="21px" xmlns="http://www.w3.org/2000/svg">
  <g transform="matrix(1 0 0 1 -10 -30 )">
    <path d="M 2.74626865671642E-05 10.019573740053  C 0.0131612661964901 3.60843956043956  5.32093471707397 -0.143510913224703  9.94720971789405 0.0671439560439559  C 15.5170583418074 0.0671439560439559  19.8943919731015 4.45097283061766  19.8943919731015 10.019573740053  C 19.8943919731015 15.4828902993558  15.4253792553715 19.9983030693444  9.94720971789405 19.9325111405836  C 4.65265589142201 19.8798258431224  -0.0130204822043628 15.864621447518  2.74626865671642E-05 10.019573740053  Z M 18.0202926340823 10.0327666161425  C 18.0334264375923 5.53046051534672  14.3900406872232 1.87077392951875  9.93399005576513 1.88422550208412  C 5.51742673117926 1.89741837817355  1.87404094308676 5.58340447139068  1.87404098081023 10.0068982190224  C 1.87404098081023 14.4170266388784  5.49124498277841 18.0241141720349  9.90780830736428 18.0504999242137  C 14.4030027734952 18.0636928003031  18.0070729719534 14.4960976506252  18.0198634164343 10.0332839712012  Z M 45.7910763293423 0.067143956043951  C 51.3216952222404 0.067143956043951  55.7644403329506 4.51650610079575  55.7382585845498 10.0327666161425  C 55.7120768361489 15.4960831754452  51.229930314909 19.9588968927624  45.7648945809414 19.9588968927624  C 45.7613639211963 19.9589006881311  45.7578332596798 19.9589025858158  45.754302597913 19.9589025858158  C 40.2880280188281 19.9589025858158  35.8567369295515 15.5076806520597  35.8567369295515 10.0168201303403  C 35.8567369295515 9.99140945184681  35.856833912962 9.96599886672579  35.8570278776447 9.94058893520273  C 35.8701616811547 4.41148044713906  40.2474952747253 0.0539510799545244  45.7910763293423 0.0674888594164419  Z M 37.7047737887486 10.0067257673361  C 37.7047737887486 14.4695394467601  41.3219777907167 18.0503274725275  45.8040384533377 18.037134596438  C 50.2334780810234 18.0239417203486  53.8378057798917 14.4300470632815  53.8508537625061 10.0199186434255  C 53.8639875660161 5.55710496400151  50.1682382811219 1.84473308071239  45.7387986534361 1.88422550208412  C 41.3093590257504 1.91061125426298  37.7050313268821 5.5575361121637  37.7050312891586 10.0068982190224  Z M 63.8375232491389 4.04259727169382  L 63.8376949286534 4.03018044713907  L 63.8376949286534 9.33501007957559  C 64.663321858291 9.40080200833648  65.4497190946367 9.42718776051534  66.2360304723635 9.5192791966654  C 67.8087390487125 9.69044168245547  68.5819166229293 10.4539901477832  68.4507502673446 12.0336861690034  C 68.3066217877645 13.7845446760136  67.9133802591438 15.5091898446381  67.6119895341972 17.3390331186055  C 66.6028327144497 17.1020787040546  65.803387533213 16.9441091322471  65.0302099589962 16.7071547176961  C 64.9122632655404 16.6676623342175  64.8467659275053 16.2595454338765  64.8729476759062 16.0357839333081  C 64.977760565852 15.0484739295188  65.2136539904871 14.0611639257294  65.226787793997 13.0867881015536  C 65.2529695423979 11.7176607427056  64.5977386993603 11.138036453202  63.234741761522 11.1515742326639  C 62.6711900049204 11.1515742326639  62.0945044448089 11.2700514209928  61.5310385091028 11.2832443349754  C 61.2820971395768 11.2964372110648  60.836406217812 11.2437519514968  60.7970906659013 11.1252747252747  C 60.6791439724455 10.7303507389163  60.1810895161555 10.3090409624858  60.6922777382319 9.84832504736642  C 60.8017496095874 9.75475841410419  60.871967660359 9.62308493518615  60.8888556109562 9.47970056839712  C 60.9019894144661 7.71564918529746  60.9019894144661 5.95159784009094  60.9019894144661 4.0559625994695  L 57.363330695424 4.0559625994695  C 55.8954350090208 4.0559625994695  55.8954350090208 4.0559625994695  55.8954350090208 2.35770318302387  L 58.0844022732491 2.35770318302387  C 58.8312263818271 2.35770318302387  59.5780505281286 2.33140367563471  60.3254754961456 2.35770318302387  C 60.7842143628014 2.3708960591133  60.9414766458914 2.1865406972338  60.9283428423815 1.73893141341417  C 60.9021610939807 1.22553020083365  60.9283428423815 0.698936112163697  60.9283428423815 0.0801643804471371  C 61.8064191651632 0.0801643804471371  62.6189981499098 0.0538648730579747  63.4314912760374 0.106463887836299  C 63.5625717730031 0.119656763925726  63.7721975906183 0.422403107237591  63.7853313941283 0.606585979537701  C 63.837780749549 1.14637294429708  63.7984651976382 1.6992665403562  63.7984651976382 2.31795210306934  L 68.6735098884697 2.31795210306934  C 68.6080125504346 2.8445461917393  68.6080125504346 3.29232792724516  68.4637982122355 3.70027233800682  C 68.4113488568148 3.8714348237969  68.0706425422339 4.01621155740811  67.8477971002132 4.0294043956044  C 66.7993246908315 4.06889677908299  65.7639861226833 4.04259727169382  64.7155137133016 4.04259727169382  L 63.8375232491389 4.04259727169382  Z M 20.0913990257504 7.70262876089427  L 20.0911414876169 7.70349105721864  C 21.5065878185993 7.70349105721864  22.8433171494177 7.67719154982947  24.1801323011317 7.71668393330807  C 24.7829996473676 7.7298768093975  25.0057592307692 7.55871432360742  24.9927112858783 6.92683592269799  C 24.9533957339675 4.68887574838954  24.9795774823684 2.43772269799166  24.9795774823684 0.133884388025762  L 27.7578490716746 0.133884388025762  C 27.7709828751845 0.397138309965892  27.7971646235854 0.660478476695712  27.7971646235854 0.923732398635842  C 27.7971646235854 2.93793103448275  27.8102984270953 4.96523633952254  27.7840308200754 6.97943497536945  C 27.7708970165655 7.53232857142857  27.9412931031655 7.72961811292156  28.5051023979006 7.71668393330807  C 29.7240567147778 7.67719154982947  30.9430110316549 7.70349105721864  32.1619653108086 7.70349105721864  L 33.0269078300804 7.70349105721864  C 32.9744584746597 8.09841504357711  32.9089611366246 8.38805475558923  32.8958273331146 8.69080106100795  C 32.8696455847138 9.17790272830617  32.6337521600787 9.30957283061765  32.1747557552895 9.29637995452822  C 30.759309424307 9.27008044713906  29.3439489519436 9.2831870784388  28 9.2831870784388  L 28 19.8930187192118  L 24.9928829653928 19.8930187192118  L 24.9928829653928 18.9978863963623  C 24.9928829653928 16.0488905646078  24.966701216992 13.1133463054187  25.0060167689027 10.1644366805608  C 25.0191505724127 9.4271877226222  24.782827967853 9.21661906025009  24.0754910907003 9.2692181508147  C 23.1580992160079 9.32190341038272  22.2275735378055 9.21653289124668  21.3233154288995 9.30871053429329  C 20.4714208922421 9.40088821523304  20.1438483811711 9.04545661235316  20.1307145776611 8.26871527093596  C 20.1175807741512 8.11074566123532  20.1044469706413 7.96588272072755  20.0913990257504 7.70262876089427  Z M 68.2410386288338 18.3791146646457  C 68.0969101492537 18.8792367563471  68.044460793833 19.2479474801061  67.887198510743 19.5770795377037  C 67.808567369198 19.7482420234937  67.546492196162 19.9325111405836  67.3629623060522 19.9325111405836  C 64.5059737543054 19.9588106479727  61.6488993439396 19.9720035240621  58.8049587748073 19.9325111405836  C 57.3240151435132 19.9062116331944  56.6293828522224 19.2347545661235  56.5902389798261 17.7735357711254  C 56.524741641791 15.1011591890868  56.5640572314253 12.441889276241  56.5509233901919 9.76951269420234  C 56.5509233901919 9.40088821523304  56.6820038871576 9.22972572944296  57.0751595948827 9.2429186055324  C 57.8219837034607 9.26921811292155  58.5561032261768 9.2429186055324  59.3817301935378 9.2429186055324  C 59.4079119419387 9.58515733232284  59.4472275315729 9.86169037514209  59.4472275315729 10.1512438044714  L 59.4472275315729 17.3391193633952  C 59.4472275315729 18.3791146646457  59.4472275315729 18.3791146646457  60.5218816893554 18.3791146646457  L 68.2411244497294 18.3791146646457  Z M 32.8559108840413 19.3269322470633  C 31.8205722781696 19.8270543387647  31.741941174348 19.8011859795377  31.165255576513 18.7213533914362  C 30.3264948433656 17.1152716180371  30.2871792537313 15.3248345206518  30.0906014187305 13.5739760136415  C 30.0251040806954 12.9552042440318  30.0251040806954 12.3365187192118  29.9595209217648 11.7177469496021  C 29.9070715663441 11.2306452823039  30.0906014187305 11.0726756726033  30.5885700164015 11.0594827965138  C 32.2136421272757 11.0331832891247  32.1612785927505 11.0199904130352  32.2660914826964 12.6523716938234  C 32.4101341036575 14.8377328154604  32.6461992078071 17.0362005683971  32.8558250254223 19.3264148920045  Z M 20.1168940560932 19.299942895036  C 20.3658354256191 16.5880739295188  20.6279964572741 13.9156111026904  20.8770236476956 11.1905492989769  L 22.8562792356897 11.1905492989769  C 22.8562792356897 11.9672906403941  22.9087285911104 12.7571386510042  22.8431454321798 13.5338799924214  C 22.7383325422339 14.8240225464191  22.5810702591438 16.1141651004168  22.3975404067574 17.3911148162183  C 22.3450910513367 17.7728459264873  22.1743516057077 18.154663281546  22.0043846990323 18.5100948844259  C 21.4539667459406 19.7345317544524  21.2442551074299 19.8003236832133  20.1171515565032 19.299942895036  Z M 31.0999299179925 5.64936885183782  C 30.7722715483024 5.63617597574839  30.4706232852222 5.51769878741948  30.090773098245 5.42517620310724  C 30.2873509332458 3.81909442970822  30.4707949647367 2.30519033724896  30.6674586583566 0.738600985221678  L 32.6988202804658 0.738600985221678  C 32.5677397835001 2.37098226600985  32.4756314794161 3.97706403940887  31.6896634607184 5.42517620310724  C 31.6110323191734 5.56995293671846  31.2965077907167 5.66213061765821  31.0999299179925 5.64936885183782  Z M 21.3231437493849 5.68843012504736  C 20.4450674266032 4.13503364910951  20.3795700885681 2.46350485032209  20.1960402361817 0.738945888594164  L 22.1618186616369 0.738945888594164  C 22.3452626931278 2.10807324744221  22.5418405281286 3.47720060629026  22.6991886698376 4.84632800303145  C 22.7123224733475 4.99110473664267  22.4632952452026 5.22805911330049  22.2798512137117 5.33342967032967  C 22.0046422371658 5.47820640394088  21.6769838674758 5.55762231906025  21.3231437493849 5.68886127320955  Z " fill-rule="nonzero" fill="#008aff" stroke="none" transform="matrix(1 0 0 1 10 30 )" />
  </g>
</svg>